<svg width="1341" height="155" viewBox="0 0 1341 155" fill="none" xmlns="http://www.w3.org/2000/svg">
<path d="M51.5871 113.631H57.4671L60.0081 120.813L62.2131 113.631H68.2191V115.983H66.5181V123.648H68.2191V126H62.4651V123.648H63.8091V115.458L62.9901 118.293L60.8901 124.509H59.1261L56.6061 117.957L55.8081 115.647V123.648H57.1941V126H51.5871V123.648H53.2881V115.983H51.5871V113.631ZM74.8375 116.046C75.9295 116.046 76.8535 116.256 77.6095 116.676C78.3655 117.082 78.9395 117.677 79.3315 118.461C79.7235 119.231 79.9195 120.162 79.9195 121.254C79.9195 122.878 79.4785 124.145 78.5965 125.055C77.7145 125.965 76.4615 126.42 74.8375 126.42C73.7735 126.42 72.8635 126.217 72.1075 125.811C71.3655 125.405 70.7985 124.817 70.4065 124.047C70.0285 123.263 69.8395 122.332 69.8395 121.254C69.8395 120.162 70.0285 119.231 70.4065 118.461C70.7985 117.677 71.3655 117.082 72.1075 116.676C72.8635 116.256 73.7735 116.046 74.8375 116.046ZM74.8585 118.209C74.0605 118.209 73.4585 118.468 73.0525 118.986C72.6465 119.504 72.4435 120.26 72.4435 121.254C72.4435 122.248 72.6465 123.004 73.0525 123.522C73.4585 124.04 74.0605 124.299 74.8585 124.299C75.6705 124.299 76.2795 124.04 76.6855 123.522C77.1055 123.004 77.3155 122.248 77.3155 121.254C77.3155 120.26 77.1055 119.504 76.6855 118.986C76.2795 118.468 75.6705 118.209 74.8585 118.209ZM81.0875 116.466H91.0625V120.414H89.1515V118.587H87.4085V123.858H89.1515V126H82.9775V123.858H84.7415V118.587H82.9985V120.414H81.0875V116.466ZM92.5231 116.445H97.6681V118.587H96.8491V122.892L100.566 116.466L104.892 116.445V118.587H103.128V123.858H104.892V126H99.7471V123.858H100.566V119.427L96.8491 126H92.5231V123.858H94.2871V118.587H92.5231V116.445ZM113.577 116.487C114.823 116.487 115.789 116.711 116.475 117.159C117.175 117.593 117.525 118.202 117.525 118.986C117.525 119.448 117.399 119.854 117.147 120.204C116.909 120.54 116.573 120.792 116.139 120.96C116.713 121.03 117.161 121.254 117.483 121.632C117.805 122.01 117.966 122.493 117.966 123.081C117.966 124.005 117.693 124.726 117.147 125.244C116.601 125.762 115.831 126.021 114.837 126.021H106.899V123.9H108.768V118.587H106.899V116.487H113.577ZM113.871 124.047C114.809 124.047 115.278 123.669 115.278 122.913C115.278 122.227 114.837 121.884 113.955 121.884H111.477V124.047H113.871ZM113.745 120.309C114.459 120.309 114.816 120.008 114.816 119.406C114.816 118.748 114.326 118.419 113.346 118.419H111.477V120.309H113.745ZM124.719 120.267H131.754V122.388H124.719V120.267ZM138.288 129.003L138.267 123.858H139.821C140.101 123.69 140.325 123.424 140.493 123.06C140.661 122.696 140.794 122.29 140.892 121.842C140.99 121.394 141.06 120.946 141.102 120.498C141.158 120.036 141.2 119.637 141.228 119.301L141.291 118.608H139.38V116.466H150.09V118.608H148.305V123.858H150.09V129.003H147.486V126H140.892V129.003H138.288ZM142.131 123.858H145.638V118.608H143.391L143.286 119.532C143.188 120.624 143.048 121.555 142.866 122.325C142.698 123.095 142.453 123.606 142.131 123.858ZM158.377 126V123.858H159.217V118.587H153.085V116.445H163.606V118.587H161.863V123.858H163.606V126H158.377ZM151.867 126.189V124.047C152.609 124.089 153.169 123.991 153.547 123.753C153.925 123.515 154.191 123.116 154.345 122.556C154.499 121.982 154.604 121.24 154.66 120.33L154.807 118.125H157.033L156.844 120.897C156.76 122.115 156.55 123.144 156.214 123.984C155.878 124.81 155.36 125.412 154.66 125.79C153.96 126.168 153.029 126.301 151.867 126.189ZM171.282 126V123.879H172.08V122.703H170.505C169.679 122.703 168.937 122.577 168.279 122.325C167.621 122.059 167.096 121.688 166.704 121.212C166.326 120.722 166.137 120.141 166.137 119.469C166.137 118.601 166.501 117.88 167.229 117.306C167.971 116.732 169.063 116.445 170.505 116.445H176.511V118.293H174.789V123.879H176.511V126H171.282ZM165.423 126V123.879H167.292L168.531 122.136L170.988 122.43L168.573 126H165.423ZM170.862 120.939H172.08V118.293H170.862C170.442 118.293 170.078 118.335 169.77 118.419C169.476 118.503 169.245 118.643 169.077 118.839C168.923 119.035 168.846 119.308 168.846 119.658C168.846 120.176 169.035 120.519 169.413 120.687C169.791 120.855 170.274 120.939 170.862 120.939ZM190.469 121.968C190.175 122.136 189.804 122.29 189.356 122.43C188.922 122.556 188.397 122.619 187.781 122.619C187.081 122.619 186.521 122.514 186.101 122.304C185.695 122.08 185.387 121.8 185.177 121.464C184.967 121.114 184.827 120.736 184.757 120.33C184.701 119.91 184.68 119.504 184.694 119.112V118.587H182.951V116.445H188.201V118.587H187.361V118.65C187.361 119.112 187.382 119.511 187.424 119.847C187.48 120.169 187.606 120.421 187.802 120.603C187.998 120.785 188.313 120.876 188.747 120.876C189.083 120.876 189.398 120.834 189.692 120.75C189.986 120.666 190.245 120.561 190.469 120.435V118.587H189.65V116.445H194.9V118.587H193.136V123.858H194.9V126H188.726V123.858H190.469V121.968ZM205.654 124.824C205.01 125.37 204.338 125.769 203.638 126.021C202.952 126.287 202.273 126.42 201.601 126.42C200.509 126.42 199.557 126.203 198.745 125.769C197.933 125.321 197.303 124.712 196.855 123.942C196.421 123.158 196.204 122.269 196.204 121.275C196.204 120.225 196.414 119.308 196.834 118.524C197.254 117.74 197.835 117.131 198.577 116.697C199.319 116.263 200.18 116.046 201.16 116.046C202.182 116.046 203.064 116.249 203.806 116.655C204.562 117.061 205.143 117.628 205.549 118.356C205.969 119.07 206.179 119.917 206.179 120.897C206.179 121.079 206.165 121.289 206.137 121.527C206.123 121.765 206.095 121.989 206.053 122.199H198.745C198.801 122.675 198.962 123.074 199.228 123.396C199.494 123.718 199.83 123.956 200.236 124.11C200.656 124.264 201.111 124.341 201.601 124.341C202.189 124.341 202.756 124.243 203.302 124.047C203.848 123.851 204.345 123.578 204.793 123.228L205.654 124.824ZM203.533 120.435C203.533 119.777 203.33 119.245 202.924 118.839C202.518 118.419 201.958 118.209 201.244 118.209C200.6 118.209 200.04 118.419 199.564 118.839C199.088 119.245 198.836 119.777 198.808 120.435H203.533ZM207.675 116.445H216.222L217.062 120.036L214.752 120.561L214.227 118.566H212.106V123.858H214.563V126H207.675V123.858H209.439V118.566H207.675V116.445ZM223.006 116.046C224.098 116.046 225.022 116.256 225.778 116.676C226.534 117.082 227.108 117.677 227.5 118.461C227.892 119.231 228.088 120.162 228.088 121.254C228.088 122.878 227.647 124.145 226.765 125.055C225.883 125.965 224.63 126.42 223.006 126.42C221.942 126.42 221.032 126.217 220.276 125.811C219.534 125.405 218.967 124.817 218.575 124.047C218.197 123.263 218.008 122.332 218.008 121.254C218.008 120.162 218.197 119.231 218.575 118.461C218.967 117.677 219.534 117.082 220.276 116.676C221.032 116.256 221.942 116.046 223.006 116.046ZM223.027 118.209C222.229 118.209 221.627 118.468 221.221 118.986C220.815 119.504 220.612 120.26 220.612 121.254C220.612 122.248 220.815 123.004 221.221 123.522C221.627 124.04 222.229 124.299 223.027 124.299C223.839 124.299 224.448 124.04 224.854 123.522C225.274 123.004 225.484 122.248 225.484 121.254C225.484 120.26 225.274 119.504 224.854 118.986C224.448 118.468 223.839 118.209 223.027 118.209ZM234.929 126V123.858H236.693V118.587H234.929V116.445H240.515L243.329 122.745H242.72L245.303 116.445H250.931V118.587H249.188V123.858H250.931V126H245.807V123.858H246.647V117.327L246.983 117.39L243.938 124.824H242.069L238.688 117.495L239.234 117.432V123.858H240.053V126H234.929ZM252.956 116.466H258.206V118.587H257.387V120.141H261.104V118.587H260.285V116.466H265.535V118.587H263.771V123.858H265.535V126H260.285V123.858H261.104V122.283H257.387V123.858H258.206V126H252.956V123.858H254.72V118.587H252.956V116.466ZM276.303 124.824C275.659 125.37 274.987 125.769 274.287 126.021C273.601 126.287 272.922 126.42 272.25 126.42C271.158 126.42 270.206 126.203 269.394 125.769C268.582 125.321 267.952 124.712 267.504 123.942C267.07 123.158 266.853 122.269 266.853 121.275C266.853 120.225 267.063 119.308 267.483 118.524C267.903 117.74 268.484 117.131 269.226 116.697C269.968 116.263 270.829 116.046 271.809 116.046C272.831 116.046 273.713 116.249 274.455 116.655C275.211 117.061 275.792 117.628 276.198 118.356C276.618 119.07 276.828 119.917 276.828 120.897C276.828 121.079 276.814 121.289 276.786 121.527C276.772 121.765 276.744 121.989 276.702 122.199H269.394C269.45 122.675 269.611 123.074 269.877 123.396C270.143 123.718 270.479 123.956 270.885 124.11C271.305 124.264 271.76 124.341 272.25 124.341C272.838 124.341 273.405 124.243 273.951 124.047C274.497 123.851 274.994 123.578 275.442 123.228L276.303 124.824ZM274.182 120.435C274.182 119.777 273.979 119.245 273.573 118.839C273.167 118.419 272.607 118.209 271.893 118.209C271.249 118.209 270.689 118.419 270.213 118.839C269.737 119.245 269.485 119.777 269.457 120.435H274.182ZM93.9819 139.487C95.2279 139.487 96.1939 139.711 96.8799 140.159C97.5799 140.593 97.9299 141.202 97.9299 141.986C97.9299 142.448 97.8039 142.854 97.5519 143.204C97.3139 143.54 96.9779 143.792 96.5439 143.96C97.1179 144.03 97.5659 144.254 97.8879 144.632C98.2099 145.01 98.3709 145.493 98.3709 146.081C98.3709 147.005 98.0979 147.726 97.5519 148.244C97.0059 148.762 96.2359 149.021 95.2419 149.021H87.3039V146.9H89.1729V141.587H87.3039V139.487H93.9819ZM94.2759 147.047C95.2139 147.047 95.6829 146.669 95.6829 145.913C95.6829 145.227 95.2419 144.884 94.3599 144.884H91.8819V147.047H94.2759ZM94.1499 143.309C94.8639 143.309 95.2209 143.008 95.2209 142.406C95.2209 141.748 94.7309 141.419 93.7509 141.419H91.8819V143.309H94.1499ZM109.4 147.824C108.756 148.37 108.084 148.769 107.384 149.021C106.698 149.287 106.019 149.42 105.347 149.42C104.255 149.42 103.303 149.203 102.491 148.769C101.679 148.321 101.049 147.712 100.601 146.942C100.167 146.158 99.9503 145.269 99.9503 144.275C99.9503 143.225 100.16 142.308 100.58 141.524C101 140.74 101.581 140.131 102.323 139.697C103.065 139.263 103.926 139.046 104.906 139.046C105.928 139.046 106.81 139.249 107.552 139.655C108.308 140.061 108.889 140.628 109.295 141.356C109.715 142.07 109.925 142.917 109.925 143.897C109.925 144.079 109.911 144.289 109.883 144.527C109.869 144.765 109.841 144.989 109.799 145.199H102.491C102.547 145.675 102.708 146.074 102.974 146.396C103.24 146.718 103.576 146.956 103.982 147.11C104.402 147.264 104.857 147.341 105.347 147.341C105.935 147.341 106.502 147.243 107.048 147.047C107.594 146.851 108.091 146.578 108.539 146.228L109.4 147.824ZM107.279 143.435C107.279 142.777 107.076 142.245 106.67 141.839C106.264 141.419 105.704 141.209 104.99 141.209C104.346 141.209 103.786 141.419 103.31 141.839C102.834 142.245 102.582 142.777 102.554 143.435H107.279ZM117.7 141.251C117.476 141.181 117.259 141.132 117.049 141.104C116.839 141.076 116.643 141.062 116.461 141.062C115.635 141.062 115.005 141.342 114.571 141.902C114.151 142.448 113.941 143.26 113.941 144.338C113.941 145.248 114.172 145.969 114.634 146.501C115.096 147.033 115.67 147.299 116.356 147.299C116.832 147.299 117.322 147.208 117.826 147.026C118.33 146.83 118.827 146.557 119.317 146.207L120.388 147.782C119.954 148.118 119.527 148.412 119.107 148.664C118.687 148.902 118.253 149.084 117.805 149.21C117.371 149.35 116.881 149.42 116.335 149.42C115.285 149.42 114.375 149.231 113.605 148.853C112.849 148.461 112.261 147.887 111.841 147.131C111.435 146.375 111.232 145.444 111.232 144.338C111.232 143.176 111.428 142.203 111.82 141.419C112.212 140.621 112.793 140.026 113.563 139.634C114.333 139.228 115.285 139.025 116.419 139.025C116.965 139.025 117.511 139.081 118.057 139.193C118.617 139.291 119.156 139.438 119.674 139.634L120.262 142.511L118.015 142.994L117.7 141.251ZM121.519 139.466H131.494V143.414H129.583V141.587H127.84V146.858H129.583V149H123.409V146.858H125.173V141.587H123.43V143.414H121.519V139.466ZM132.954 139.445H138.099V141.587H137.28V145.892L140.997 139.466L145.323 139.445V141.587H143.559V146.858H145.323V149H140.178V146.858H140.997V142.427L137.28 149H132.954V146.858H134.718V141.587H132.954V139.445ZM152.252 139.445H160.799L161.639 143.036L159.329 143.561L158.804 141.566H156.683V146.858H159.14V149H152.252V146.858H154.016V141.566H152.252V139.445ZM162.313 153.704V151.604H164.077V141.944L162.082 141.272L162.775 139.13L165.799 140.159C166.275 139.809 166.779 139.536 167.311 139.34C167.857 139.144 168.368 139.046 168.844 139.046C170.342 139.046 171.511 139.508 172.351 140.432C173.205 141.342 173.632 142.602 173.632 144.212C173.632 145.276 173.422 146.207 173.002 147.005C172.596 147.789 172.008 148.398 171.238 148.832C170.482 149.252 169.586 149.462 168.55 149.462C167.864 149.462 167.262 149.392 166.744 149.252V151.604H168.508V153.704H162.313ZM168.508 147.341C169.278 147.341 169.866 147.075 170.272 146.543C170.692 145.997 170.902 145.234 170.902 144.254C170.902 143.288 170.706 142.539 170.314 142.007C169.936 141.475 169.397 141.209 168.697 141.209C168.319 141.209 167.955 141.279 167.605 141.419C167.269 141.545 166.968 141.727 166.702 141.965V147.026C166.94 147.124 167.22 147.201 167.542 147.257C167.864 147.313 168.186 147.341 168.508 147.341ZM176.747 154.229C176.439 154.229 176.117 154.187 175.781 154.103C175.445 154.033 175.095 153.921 174.731 153.767L175.235 151.688C175.515 151.8 175.76 151.884 175.97 151.94C176.194 151.996 176.439 152.024 176.705 152.024C177.027 152.024 177.3 151.933 177.524 151.751C177.748 151.583 177.972 151.289 178.196 150.869C178.42 150.449 178.679 149.882 178.973 149.168L182.144 141.587H181.094L181.22 139.466H186.428V141.587H184.769L180.758 150.491C180.156 151.835 179.54 152.794 178.91 153.368C178.294 153.942 177.573 154.229 176.747 154.229ZM179.414 150.365L175.298 141.587H173.744V139.466H179.141V141.587H178.007L180.674 148.013L179.414 150.365ZM187.362 139.445H199.941V141.587H198.177V146.858H199.941V149H194.691V146.858H195.51V141.587H191.793V146.858H192.612V149H187.362V146.858H189.126V141.587H187.362V139.445ZM201.963 139.445H214.542V141.587H212.778V146.858H214.542V149H209.292V146.858H210.111V141.587H206.394V146.858H207.213V149H201.963V146.858H203.727V141.587H201.963V139.445ZM216.565 149.021V146.9H218.434V141.587H216.565V139.487H223.012V141.587H220.933V143.141H222.571C223.257 143.141 223.901 143.218 224.503 143.372C225.119 143.526 225.616 143.806 225.994 144.212C226.386 144.618 226.582 145.206 226.582 145.976C226.582 146.9 226.323 147.642 225.805 148.202C225.301 148.748 224.587 149.021 223.663 149.021H216.565ZM220.933 146.879H222.697C223.117 146.879 223.453 146.802 223.705 146.648C223.971 146.48 224.104 146.228 224.104 145.892C224.104 145.57 223.985 145.339 223.747 145.199C223.509 145.059 223.187 144.989 222.781 144.989H220.933V146.879ZM228.052 149V146.858V141.587H226.603V139.466H232.483V141.587H230.719V146.858H232.483V149H228.052ZM233.879 137.156C234.243 136.876 234.768 136.645 235.454 136.463C236.14 136.267 236.826 136.169 237.512 136.169C238.856 136.169 239.871 136.442 240.557 136.988C241.243 137.52 241.586 138.304 241.586 139.34C241.586 139.942 241.446 140.439 241.166 140.831C240.9 141.223 240.417 141.601 239.717 141.965C239.171 142.245 238.758 142.469 238.478 142.637C238.212 142.805 238.03 142.952 237.932 143.078C237.848 143.204 237.806 143.358 237.806 143.54C237.806 143.652 237.827 143.771 237.869 143.897C237.925 144.009 238.023 144.17 238.163 144.38L236.609 145.115C236.273 144.793 236.035 144.485 235.895 144.191C235.769 143.883 235.706 143.519 235.706 143.099C235.706 142.763 235.769 142.469 235.895 142.217C236.035 141.965 236.28 141.713 236.63 141.461C236.994 141.195 237.505 140.887 238.163 140.537C238.429 140.397 238.632 140.271 238.772 140.159C238.926 140.033 239.031 139.907 239.087 139.781C239.157 139.641 239.192 139.487 239.192 139.319C239.192 138.941 239.059 138.647 238.793 138.437C238.541 138.213 238.184 138.101 237.722 138.101C237.456 138.101 237.155 138.129 236.819 138.185C236.497 138.241 236.21 138.325 235.958 138.437L235.706 140.138L233.585 139.907L233.879 137.156ZM237.554 145.829C238.044 145.829 238.471 146.011 238.835 146.375C239.199 146.739 239.381 147.166 239.381 147.656C239.381 148.132 239.199 148.552 238.835 148.916C238.471 149.28 238.044 149.462 237.554 149.462C237.078 149.462 236.658 149.28 236.294 148.916C235.93 148.552 235.748 148.132 235.748 147.656C235.748 147.166 235.923 146.739 236.273 146.375C236.637 146.011 237.064 145.829 237.554 145.829Z" fill="#3B4F60"/>
<path d="M542.955 115.773C542.955 115.759 542.85 115.731 542.64 115.689C542.43 115.633 542.171 115.577 541.863 115.521C541.555 115.465 541.247 115.437 540.939 115.437C539.763 115.437 538.86 115.808 538.23 116.55C537.6 117.292 537.285 118.37 537.285 119.784C537.285 121.212 537.607 122.304 538.251 123.06C538.895 123.816 539.791 124.194 540.939 124.194C541.289 124.194 541.618 124.152 541.926 124.068C542.234 123.97 542.479 123.879 542.661 123.795C542.857 123.711 542.955 123.669 542.955 123.669L543.417 121.779L545.685 122.304L545.013 125.475C545.013 125.475 544.838 125.559 544.488 125.727C544.152 125.881 543.676 126.042 543.06 126.21C542.444 126.378 541.737 126.462 540.939 126.462C539.665 126.462 538.538 126.231 537.558 125.769C536.592 125.293 535.836 124.565 535.29 123.585C534.744 122.591 534.471 121.324 534.471 119.784C534.471 118.384 534.737 117.194 535.269 116.214C535.801 115.234 536.55 114.485 537.516 113.967C538.496 113.435 539.63 113.169 540.918 113.169C541.786 113.169 542.528 113.26 543.144 113.442C543.774 113.624 544.25 113.813 544.572 114.009C544.908 114.191 545.076 114.282 545.076 114.282L545.706 117.432L543.417 117.936L542.955 115.773ZM552.308 116.046C553.4 116.046 554.324 116.256 555.08 116.676C555.836 117.082 556.41 117.677 556.802 118.461C557.194 119.231 557.39 120.162 557.39 121.254C557.39 122.878 556.949 124.145 556.067 125.055C555.185 125.965 553.932 126.42 552.308 126.42C551.244 126.42 550.334 126.217 549.578 125.811C548.836 125.405 548.269 124.817 547.877 124.047C547.499 123.263 547.31 122.332 547.31 121.254C547.31 120.162 547.499 119.231 547.877 118.461C548.269 117.677 548.836 117.082 549.578 116.676C550.334 116.256 551.244 116.046 552.308 116.046ZM552.329 118.209C551.531 118.209 550.929 118.468 550.523 118.986C550.117 119.504 549.914 120.26 549.914 121.254C549.914 122.248 550.117 123.004 550.523 123.522C550.929 124.04 551.531 124.299 552.329 124.299C553.141 124.299 553.75 124.04 554.156 123.522C554.576 123.004 554.786 122.248 554.786 121.254C554.786 120.26 554.576 119.504 554.156 118.986C553.75 118.468 553.141 118.209 552.329 118.209ZM565.588 118.251C565.364 118.181 565.147 118.132 564.937 118.104C564.727 118.076 564.531 118.062 564.349 118.062C563.523 118.062 562.893 118.342 562.459 118.902C562.039 119.448 561.829 120.26 561.829 121.338C561.829 122.248 562.06 122.969 562.522 123.501C562.984 124.033 563.558 124.299 564.244 124.299C564.72 124.299 565.21 124.208 565.714 124.026C566.218 123.83 566.715 123.557 567.205 123.207L568.276 124.782C567.842 125.118 567.415 125.412 566.995 125.664C566.575 125.902 566.141 126.084 565.693 126.21C565.259 126.35 564.769 126.42 564.223 126.42C563.173 126.42 562.263 126.231 561.493 125.853C560.737 125.461 560.149 124.887 559.729 124.131C559.323 123.375 559.12 122.444 559.12 121.338C559.12 120.176 559.316 119.203 559.708 118.419C560.1 117.621 560.681 117.026 561.451 116.634C562.221 116.228 563.173 116.025 564.307 116.025C564.853 116.025 565.399 116.081 565.945 116.193C566.505 116.291 567.044 116.438 567.562 116.634L568.15 119.511L565.903 119.994L565.588 118.251ZM569.406 116.466H579.381V120.414H577.47V118.587H575.727V123.858H577.47V126H571.296V123.858H573.06V118.587H571.317V120.414H569.406V116.466ZM587.772 125.643C586.764 126.161 585.756 126.42 584.748 126.42C583.39 126.42 582.361 126.168 581.661 125.664C580.961 125.146 580.611 124.397 580.611 123.417C580.611 121.415 581.941 120.414 584.601 120.414H586.806C586.806 119.602 586.631 119.007 586.281 118.629C585.945 118.237 585.525 118.041 585.021 118.041C584.713 118.041 584.426 118.062 584.16 118.104C583.908 118.146 583.656 118.209 583.404 118.293L583.215 119.28L581.01 119.007L581.409 116.655C581.983 116.459 582.571 116.312 583.173 116.214C583.789 116.102 584.44 116.046 585.126 116.046C586.526 116.046 587.597 116.417 588.339 117.159C589.095 117.887 589.473 118.965 589.473 120.393V123.816L591.174 124.362L590.439 126.546L587.772 125.643ZM584.664 122.073C584.23 122.073 583.894 122.192 583.656 122.43C583.432 122.654 583.32 122.969 583.32 123.375C583.32 124.117 583.824 124.488 584.832 124.488C585.532 124.488 586.19 124.306 586.806 123.942V122.073H584.664ZM598.635 116.487C599.881 116.487 600.847 116.711 601.533 117.159C602.233 117.593 602.583 118.202 602.583 118.986C602.583 119.448 602.457 119.854 602.205 120.204C601.967 120.54 601.631 120.792 601.197 120.96C601.771 121.03 602.219 121.254 602.541 121.632C602.863 122.01 603.024 122.493 603.024 123.081C603.024 124.005 602.751 124.726 602.205 125.244C601.659 125.762 600.889 126.021 599.895 126.021H591.957V123.9H593.826V118.587H591.957V116.487H598.635ZM598.929 124.047C599.867 124.047 600.336 123.669 600.336 122.913C600.336 122.227 599.895 121.884 599.013 121.884H596.535V124.047H598.929ZM598.803 120.309C599.517 120.309 599.874 120.008 599.874 119.406C599.874 118.748 599.384 118.419 598.404 118.419H596.535V120.309H598.803ZM610.725 126V123.858H611.565V118.587H605.433V116.445H615.954V118.587H614.211V123.858H615.954V126H610.725ZM604.215 126.189V124.047C604.957 124.089 605.517 123.991 605.895 123.753C606.273 123.515 606.539 123.116 606.693 122.556C606.847 121.982 606.952 121.24 607.008 120.33L607.155 118.125H609.381L609.192 120.897C609.108 122.115 608.898 123.144 608.562 123.984C608.226 124.81 607.708 125.412 607.008 125.79C606.308 126.168 605.377 126.301 604.215 126.189ZM626.727 124.824C626.083 125.37 625.411 125.769 624.711 126.021C624.025 126.287 623.346 126.42 622.674 126.42C621.582 126.42 620.63 126.203 619.818 125.769C619.006 125.321 618.376 124.712 617.928 123.942C617.494 123.158 617.277 122.269 617.277 121.275C617.277 120.225 617.487 119.308 617.907 118.524C618.327 117.74 618.908 117.131 619.65 116.697C620.392 116.263 621.253 116.046 622.233 116.046C623.255 116.046 624.137 116.249 624.879 116.655C625.635 117.061 626.216 117.628 626.622 118.356C627.042 119.07 627.252 119.917 627.252 120.897C627.252 121.079 627.238 121.289 627.21 121.527C627.196 121.765 627.168 121.989 627.126 122.199H619.818C619.874 122.675 620.035 123.074 620.301 123.396C620.567 123.718 620.903 123.956 621.309 124.11C621.729 124.264 622.184 124.341 622.674 124.341C623.262 124.341 623.829 124.243 624.375 124.047C624.921 123.851 625.418 123.578 625.866 123.228L626.727 124.824ZM624.606 120.435C624.606 119.777 624.403 119.245 623.997 118.839C623.591 118.419 623.031 118.209 622.317 118.209C621.673 118.209 621.113 118.419 620.637 118.839C620.161 119.245 619.909 119.777 619.881 120.435H624.606ZM628.748 116.466H633.998V118.587H633.179V120.141H636.896V118.587H636.077V116.466H641.327V118.587H639.563V123.858H641.327V126H636.077V123.858H636.896V122.283H633.179V123.858H633.998V126H628.748V123.858H630.512V118.587H628.748V116.466ZM643.35 116.445H648.495V118.587H647.676V122.892L651.393 116.466L655.719 116.445V118.587H653.955V123.858H655.719V126H650.574V123.858H651.393V119.427L647.676 126H643.35V123.858H645.114V118.587H643.35V116.445ZM666.472 124.824C665.828 125.37 665.156 125.769 664.456 126.021C663.77 126.287 663.091 126.42 662.419 126.42C661.327 126.42 660.375 126.203 659.563 125.769C658.751 125.321 658.121 124.712 657.673 123.942C657.239 123.158 657.022 122.269 657.022 121.275C657.022 120.225 657.232 119.308 657.652 118.524C658.072 117.74 658.653 117.131 659.395 116.697C660.137 116.263 660.998 116.046 661.978 116.046C663 116.046 663.882 116.249 664.624 116.655C665.38 117.061 665.961 117.628 666.367 118.356C666.787 119.07 666.997 119.917 666.997 120.897C666.997 121.079 666.983 121.289 666.955 121.527C666.941 121.765 666.913 121.989 666.871 122.199H659.563C659.619 122.675 659.78 123.074 660.046 123.396C660.312 123.718 660.648 123.956 661.054 124.11C661.474 124.264 661.929 124.341 662.419 124.341C663.007 124.341 663.574 124.243 664.12 124.047C664.666 123.851 665.163 123.578 665.611 123.228L666.472 124.824ZM664.351 120.435C664.351 119.777 664.148 119.245 663.742 118.839C663.336 118.419 662.776 118.209 662.062 118.209C661.418 118.209 660.858 118.419 660.382 118.839C659.906 119.245 659.654 119.777 659.626 120.435H664.351ZM673.414 116.445H685.993V118.587H684.229V123.858H685.993V126H680.743V123.858H681.562V118.587H677.845V123.858H678.664V126H673.414V123.858H675.178V118.587H673.414V116.445ZM687.659 130.704V128.604H689.423V118.944L687.428 118.272L688.121 116.13L691.145 117.159C691.621 116.809 692.125 116.536 692.657 116.34C693.203 116.144 693.714 116.046 694.19 116.046C695.688 116.046 696.857 116.508 697.697 117.432C698.551 118.342 698.978 119.602 698.978 121.212C698.978 122.276 698.768 123.207 698.348 124.005C697.942 124.789 697.354 125.398 696.584 125.832C695.828 126.252 694.932 126.462 693.896 126.462C693.21 126.462 692.608 126.392 692.09 126.252V128.604H693.854V130.704H687.659ZM693.854 124.341C694.624 124.341 695.212 124.075 695.618 123.543C696.038 122.997 696.248 122.234 696.248 121.254C696.248 120.288 696.052 119.539 695.66 119.007C695.282 118.475 694.743 118.209 694.043 118.209C693.665 118.209 693.301 118.279 692.951 118.419C692.615 118.545 692.314 118.727 692.048 118.965V124.026C692.286 124.124 692.566 124.201 692.888 124.257C693.21 124.313 693.532 124.341 693.854 124.341ZM705.727 116.046C706.819 116.046 707.743 116.256 708.499 116.676C709.255 117.082 709.829 117.677 710.221 118.461C710.613 119.231 710.809 120.162 710.809 121.254C710.809 122.878 710.368 124.145 709.486 125.055C708.604 125.965 707.351 126.42 705.727 126.42C704.663 126.42 703.753 126.217 702.997 125.811C702.255 125.405 701.688 124.817 701.296 124.047C700.918 123.263 700.729 122.332 700.729 121.254C700.729 120.162 700.918 119.231 701.296 118.461C701.688 117.677 702.255 117.082 702.997 116.676C703.753 116.256 704.663 116.046 705.727 116.046ZM705.748 118.209C704.95 118.209 704.348 118.468 703.942 118.986C703.536 119.504 703.333 120.26 703.333 121.254C703.333 122.248 703.536 123.004 703.942 123.522C704.348 124.04 704.95 124.299 705.748 124.299C706.56 124.299 707.169 124.04 707.575 123.522C707.995 123.004 708.205 122.248 708.205 121.254C708.205 120.26 707.995 119.504 707.575 118.986C707.169 118.468 706.56 118.209 705.748 118.209ZM712.318 116.445H720.865L721.705 120.036L719.395 120.561L718.87 118.566H716.749V123.858H719.206V126H712.318V123.858H714.082V118.566H712.318V116.445ZM722.379 130.704V128.604H724.143V118.944L722.148 118.272L722.841 116.13L725.865 117.159C726.341 116.809 726.845 116.536 727.377 116.34C727.923 116.144 728.434 116.046 728.91 116.046C730.408 116.046 731.577 116.508 732.417 117.432C733.271 118.342 733.698 119.602 733.698 121.212C733.698 122.276 733.488 123.207 733.068 124.005C732.662 124.789 732.074 125.398 731.304 125.832C730.548 126.252 729.652 126.462 728.616 126.462C727.93 126.462 727.328 126.392 726.81 126.252V128.604H728.574V130.704H722.379ZM728.574 124.341C729.344 124.341 729.932 124.075 730.338 123.543C730.758 122.997 730.968 122.234 730.968 121.254C730.968 120.288 730.772 119.539 730.38 119.007C730.002 118.475 729.463 118.209 728.763 118.209C728.385 118.209 728.021 118.279 727.671 118.419C727.335 118.545 727.034 118.727 726.768 118.965V124.026C727.006 124.124 727.286 124.201 727.608 124.257C727.93 124.313 728.252 124.341 728.574 124.341ZM742.257 125.643C741.249 126.161 740.241 126.42 739.233 126.42C737.875 126.42 736.846 126.168 736.146 125.664C735.446 125.146 735.096 124.397 735.096 123.417C735.096 121.415 736.426 120.414 739.086 120.414H741.291C741.291 119.602 741.116 119.007 740.766 118.629C740.43 118.237 740.01 118.041 739.506 118.041C739.198 118.041 738.911 118.062 738.645 118.104C738.393 118.146 738.141 118.209 737.889 118.293L737.7 119.28L735.495 119.007L735.894 116.655C736.468 116.459 737.056 116.312 737.658 116.214C738.274 116.102 738.925 116.046 739.611 116.046C741.011 116.046 742.082 116.417 742.824 117.159C743.58 117.887 743.958 118.965 743.958 120.393V123.816L745.659 124.362L744.924 126.546L742.257 125.643ZM739.149 122.073C738.715 122.073 738.379 122.192 738.141 122.43C737.917 122.654 737.805 122.969 737.805 123.375C737.805 124.117 738.309 124.488 739.317 124.488C740.017 124.488 740.675 124.306 741.291 123.942V122.073H739.149ZM746.443 126V123.858H748.207V118.587H746.443V116.445H752.029L754.843 122.745H754.234L756.817 116.445H762.445V118.587H760.702V123.858H762.445V126H757.321V123.858H758.161V117.327L758.497 117.39L755.452 124.824H753.583L750.202 117.495L750.748 117.432V123.858H751.567V126H746.443ZM764.469 126V123.858H766.233V118.587H764.469V116.445H770.055L772.869 122.745H772.26L774.843 116.445H780.471V118.587H778.728V123.858H780.471V126H775.347V123.858H776.187V117.327L776.523 117.39L773.478 124.824H771.609L768.228 117.495L768.774 117.432V123.858H769.593V126H764.469ZM782.495 126.021V123.9H784.364V118.587H782.495V116.487H788.942V118.587H786.863V120.141H788.501C789.187 120.141 789.831 120.218 790.433 120.372C791.049 120.526 791.546 120.806 791.924 121.212C792.316 121.618 792.512 122.206 792.512 122.976C792.512 123.9 792.253 124.642 791.735 125.202C791.231 125.748 790.517 126.021 789.593 126.021H782.495ZM786.863 123.879H788.627C789.047 123.879 789.383 123.802 789.635 123.648C789.901 123.48 790.034 123.228 790.034 122.892C790.034 122.57 789.915 122.339 789.677 122.199C789.439 122.059 789.117 121.989 788.711 121.989H786.863V123.879ZM793.982 126V123.858V118.587H792.533V116.466H798.413V118.587H796.649V123.858H798.413V126H793.982ZM626.39 139.445H634.937L635.777 143.036L633.467 143.561L632.942 141.566H630.821V146.858H633.278V149H626.39V146.858H628.154V141.566H626.39V139.445ZM636.451 153.704V151.604H638.215V141.944L636.22 141.272L636.913 139.13L639.937 140.159C640.413 139.809 640.917 139.536 641.449 139.34C641.995 139.144 642.506 139.046 642.982 139.046C644.48 139.046 645.649 139.508 646.489 140.432C647.343 141.342 647.77 142.602 647.77 144.212C647.77 145.276 647.56 146.207 647.14 147.005C646.734 147.789 646.146 148.398 645.376 148.832C644.62 149.252 643.724 149.462 642.688 149.462C642.002 149.462 641.4 149.392 640.882 149.252V151.604H642.646V153.704H636.451ZM642.646 147.341C643.416 147.341 644.004 147.075 644.41 146.543C644.83 145.997 645.04 145.234 645.04 144.254C645.04 143.288 644.844 142.539 644.452 142.007C644.074 141.475 643.535 141.209 642.835 141.209C642.457 141.209 642.093 141.279 641.743 141.419C641.407 141.545 641.106 141.727 640.84 141.965V147.026C641.078 147.124 641.358 147.201 641.68 147.257C642.002 147.313 642.324 147.341 642.646 147.341ZM650.885 154.229C650.577 154.229 650.255 154.187 649.919 154.103C649.583 154.033 649.233 153.921 648.869 153.767L649.373 151.688C649.653 151.8 649.898 151.884 650.108 151.94C650.332 151.996 650.577 152.024 650.843 152.024C651.165 152.024 651.438 151.933 651.662 151.751C651.886 151.583 652.11 151.289 652.334 150.869C652.558 150.449 652.817 149.882 653.111 149.168L656.282 141.587H655.232L655.358 139.466H660.566V141.587H658.907L654.896 150.491C654.294 151.835 653.678 152.794 653.048 153.368C652.432 153.942 651.711 154.229 650.885 154.229ZM653.552 150.365L649.436 141.587H647.882V139.466H653.279V141.587H652.145L654.812 148.013L653.552 150.365ZM661.499 139.445H674.078V141.587H672.314V146.858H674.078V149H668.828V146.858H669.647V141.587H665.93V146.858H666.749V149H661.499V146.858H663.263V141.587H661.499V139.445ZM676.101 139.445H688.68V141.587H686.916V146.858H688.68V149H683.43V146.858H684.249V141.587H680.532V146.858H681.351V149H676.101V146.858H677.865V141.587H676.101V139.445ZM690.702 149.021V146.9H692.571V141.587H690.702V139.487H697.149V141.587H695.07V143.141H696.708C697.394 143.141 698.038 143.218 698.64 143.372C699.256 143.526 699.753 143.806 700.131 144.212C700.523 144.618 700.719 145.206 700.719 145.976C700.719 146.9 700.46 147.642 699.942 148.202C699.438 148.748 698.724 149.021 697.8 149.021H690.702ZM695.07 146.879H696.834C697.254 146.879 697.59 146.802 697.842 146.648C698.108 146.48 698.241 146.228 698.241 145.892C698.241 145.57 698.122 145.339 697.884 145.199C697.646 145.059 697.324 144.989 696.918 144.989H695.07V146.879ZM702.189 149V146.858V141.587H700.74V139.466H706.62V141.587H704.856V146.858H706.62V149H702.189Z" fill="#3B4F60"/>
<path d="M1055.54 114.219C1056.21 113.883 1056.93 113.631 1057.68 113.463C1058.44 113.281 1059.18 113.19 1059.89 113.19C1060.77 113.19 1061.58 113.323 1062.3 113.589C1063.05 113.855 1063.64 114.268 1064.09 114.828C1064.54 115.374 1064.76 116.074 1064.76 116.928C1064.76 117.572 1064.58 118.132 1064.22 118.608C1063.85 119.07 1063.3 119.406 1062.56 119.616C1063.52 119.812 1064.2 120.162 1064.59 120.666C1065 121.17 1065.2 121.786 1065.2 122.514C1065.2 123.396 1064.96 124.131 1064.47 124.719C1063.98 125.307 1063.33 125.741 1062.51 126.021C1061.72 126.315 1060.83 126.462 1059.85 126.462C1058.98 126.462 1058.13 126.329 1057.31 126.063C1056.48 125.797 1055.79 125.398 1055.25 124.866L1054.66 122.577L1056.95 121.989L1057.39 123.501C1057.74 123.767 1058.1 123.963 1058.46 124.089C1058.84 124.215 1059.33 124.278 1059.93 124.278C1060.59 124.278 1061.17 124.131 1061.67 123.837C1062.18 123.529 1062.43 123.046 1062.43 122.388C1062.43 121.94 1062.27 121.562 1061.95 121.254C1061.64 120.946 1061.14 120.792 1060.44 120.792H1058.48V118.671H1060.37C1060.96 118.671 1061.38 118.531 1061.63 118.251C1061.9 117.971 1062.03 117.558 1062.03 117.012C1062.03 116.452 1061.81 116.046 1061.36 115.794C1060.91 115.542 1060.38 115.416 1059.76 115.416C1059.41 115.416 1059.06 115.451 1058.69 115.521C1058.33 115.591 1057.99 115.703 1057.66 115.857L1057.24 117.159L1054.95 116.634L1055.54 114.219ZM1073.88 125.643C1072.87 126.161 1071.86 126.42 1070.85 126.42C1069.5 126.42 1068.47 126.168 1067.77 125.664C1067.07 125.146 1066.72 124.397 1066.72 123.417C1066.72 121.415 1068.05 120.414 1070.71 120.414H1072.91C1072.91 119.602 1072.74 119.007 1072.39 118.629C1072.05 118.237 1071.63 118.041 1071.13 118.041C1070.82 118.041 1070.53 118.062 1070.27 118.104C1070.01 118.146 1069.76 118.209 1069.51 118.293L1069.32 119.28L1067.12 119.007L1067.51 116.655C1068.09 116.459 1068.68 116.312 1069.28 116.214C1069.89 116.102 1070.55 116.046 1071.23 116.046C1072.63 116.046 1073.7 116.417 1074.44 117.159C1075.2 117.887 1075.58 118.965 1075.58 120.393V123.816L1077.28 124.362L1076.54 126.546L1073.88 125.643ZM1070.77 122.073C1070.34 122.073 1070 122.192 1069.76 122.43C1069.54 122.654 1069.43 122.969 1069.43 123.375C1069.43 124.117 1069.93 124.488 1070.94 124.488C1071.64 124.488 1072.3 124.306 1072.91 123.942V122.073H1070.77ZM1091.78 129.003V126H1078.06V123.858H1079.81V118.587H1078.06V116.445H1083.31V118.587H1082.49V123.858H1084.76V118.587V116.466H1088.25V118.587H1087.43V123.858H1089.7V118.587V116.466H1094.13V118.587H1092.36V123.858H1094.13V129.003H1091.78ZM1096.15 116.445H1101.3V118.587H1100.48V122.892L1104.19 116.466L1108.52 116.445V118.587H1106.76V123.858H1108.52V126H1103.38V123.858H1104.19V119.427L1100.48 126H1096.15V123.858H1097.92V118.587H1096.15V116.445ZM1109.98 116.466H1119.96V120.414H1118.05V118.587H1116.3V123.858H1118.05V126H1111.87V123.858H1113.64V118.587H1111.89V120.414H1109.98V116.466ZM1128.35 125.643C1127.34 126.161 1126.33 126.42 1125.32 126.42C1123.96 126.42 1122.94 126.168 1122.24 125.664C1121.54 125.146 1121.19 124.397 1121.19 123.417C1121.19 121.415 1122.52 120.414 1125.18 120.414H1127.38C1127.38 119.602 1127.21 119.007 1126.86 118.629C1126.52 118.237 1126.1 118.041 1125.6 118.041C1125.29 118.041 1125 118.062 1124.73 118.104C1124.48 118.146 1124.23 118.209 1123.98 118.293L1123.79 119.28L1121.58 119.007L1121.98 116.655C1122.56 116.459 1123.15 116.312 1123.75 116.214C1124.36 116.102 1125.01 116.046 1125.7 116.046C1127.1 116.046 1128.17 116.417 1128.91 117.159C1129.67 117.887 1130.05 118.965 1130.05 120.393V123.816L1131.75 124.362L1131.01 126.546L1128.35 125.643ZM1125.24 122.073C1124.8 122.073 1124.47 122.192 1124.23 122.43C1124.01 122.654 1123.89 122.969 1123.89 123.375C1123.89 124.117 1124.4 124.488 1125.41 124.488C1126.11 124.488 1126.76 124.306 1127.38 123.942V122.073H1125.24ZM1144.77 116.487C1146.01 116.487 1146.98 116.711 1147.67 117.159C1148.37 117.593 1148.72 118.202 1148.72 118.986C1148.72 119.448 1148.59 119.854 1148.34 120.204C1148.1 120.54 1147.76 120.792 1147.33 120.96C1147.9 121.03 1148.35 121.254 1148.67 121.632C1149 122.01 1149.16 122.493 1149.16 123.081C1149.16 124.005 1148.88 124.726 1148.34 125.244C1147.79 125.762 1147.02 126.021 1146.03 126.021H1138.09V123.9H1139.96V118.587H1138.09V116.487H1144.77ZM1145.06 124.047C1146 124.047 1146.47 123.669 1146.47 122.913C1146.47 122.227 1146.03 121.884 1145.15 121.884H1142.67V124.047H1145.06ZM1144.94 120.309C1145.65 120.309 1146.01 120.008 1146.01 119.406C1146.01 118.748 1145.52 118.419 1144.54 118.419H1142.67V120.309H1144.94ZM1151.03 126.021V123.9H1152.9V118.587H1151.03V116.487H1157.48V118.587H1155.4V120.141H1157.04C1157.72 120.141 1158.37 120.218 1158.97 120.372C1159.58 120.526 1160.08 120.806 1160.46 121.212C1160.85 121.618 1161.05 122.206 1161.05 122.976C1161.05 123.9 1160.79 124.642 1160.27 125.202C1159.77 125.748 1159.05 126.021 1158.13 126.021H1151.03ZM1155.4 123.879H1157.16C1157.58 123.879 1157.92 123.802 1158.17 123.648C1158.44 123.48 1158.57 123.228 1158.57 122.892C1158.57 122.57 1158.45 122.339 1158.21 122.199C1157.97 122.059 1157.65 121.989 1157.25 121.989H1155.4V123.879ZM1162.52 126V123.858V118.587H1161.07V116.466H1166.95V118.587H1165.18V123.858H1166.95V126H1162.52ZM1168.95 116.445H1181.53V118.587H1179.77V123.858H1181.53V126H1176.28V123.858H1177.1V118.587H1173.38V123.858H1174.2V126H1168.95V123.858H1170.72V118.587H1168.95V116.445ZM1185.06 131.229C1184.75 131.229 1184.43 131.187 1184.1 131.103C1183.76 131.033 1183.41 130.921 1183.05 130.767L1183.55 128.688C1183.83 128.8 1184.07 128.884 1184.28 128.94C1184.51 128.996 1184.75 129.024 1185.02 129.024C1185.34 129.024 1185.61 128.933 1185.84 128.751C1186.06 128.583 1186.29 128.289 1186.51 127.869C1186.73 127.449 1186.99 126.882 1187.29 126.168L1190.46 118.587H1189.41L1189.53 116.466H1194.74V118.587H1193.08L1189.07 127.491C1188.47 128.835 1187.85 129.794 1187.22 130.368C1186.61 130.942 1185.89 131.229 1185.06 131.229ZM1187.73 127.365L1183.61 118.587H1182.06V116.466H1187.46V118.587H1186.32L1188.99 125.013L1187.73 127.365ZM1201.52 118.251C1201.3 118.181 1201.08 118.132 1200.87 118.104C1200.66 118.076 1200.47 118.062 1200.28 118.062C1199.46 118.062 1198.83 118.342 1198.39 118.902C1197.97 119.448 1197.76 120.26 1197.76 121.338C1197.76 122.248 1198 122.969 1198.46 123.501C1198.92 124.033 1199.49 124.299 1200.18 124.299C1200.66 124.299 1201.15 124.208 1201.65 124.026C1202.15 123.83 1202.65 123.557 1203.14 123.207L1204.21 124.782C1203.78 125.118 1203.35 125.412 1202.93 125.664C1202.51 125.902 1202.08 126.084 1201.63 126.21C1201.19 126.35 1200.7 126.42 1200.16 126.42C1199.11 126.42 1198.2 126.231 1197.43 125.853C1196.67 125.461 1196.08 124.887 1195.66 124.131C1195.26 123.375 1195.06 122.444 1195.06 121.338C1195.06 120.176 1195.25 119.203 1195.64 118.419C1196.04 117.621 1196.62 117.026 1197.39 116.634C1198.16 116.228 1199.11 116.025 1200.24 116.025C1200.79 116.025 1201.33 116.081 1201.88 116.193C1202.44 116.291 1202.98 116.438 1203.5 116.634L1204.09 119.511L1201.84 119.994L1201.52 118.251ZM1205.89 116.466H1210.93V118.587H1210.32V120.267H1211.81L1213.01 118.587H1211.94V116.466H1217.23V118.587H1215.7L1213.66 121.275L1215.59 123.879H1217.33V126H1214.12L1211.5 122.367H1210.32V123.879H1210.93V126H1205.89V123.879H1207.65V118.587H1205.89V116.466ZM1219.16 116.466H1224.41V118.587H1223.59V120.141H1227.3V118.587H1226.49V116.466H1231.74V118.587H1229.97V123.858H1231.74V126H1226.49V123.858H1227.3V122.283H1223.59V123.858H1224.41V126H1219.16V123.858H1220.92V118.587H1219.16V116.466ZM1238.26 116.046C1239.35 116.046 1240.28 116.256 1241.03 116.676C1241.79 117.082 1242.36 117.677 1242.76 118.461C1243.15 119.231 1243.34 120.162 1243.34 121.254C1243.34 122.878 1242.9 124.145 1242.02 125.055C1241.14 125.965 1239.89 126.42 1238.26 126.42C1237.2 126.42 1236.29 126.217 1235.53 125.811C1234.79 125.405 1234.22 124.817 1233.83 124.047C1233.45 123.263 1233.26 122.332 1233.26 121.254C1233.26 120.162 1233.45 119.231 1233.83 118.461C1234.22 117.677 1234.79 117.082 1235.53 116.676C1236.29 116.256 1237.2 116.046 1238.26 116.046ZM1238.28 118.209C1237.49 118.209 1236.88 118.468 1236.48 118.986C1236.07 119.504 1235.87 120.26 1235.87 121.254C1235.87 122.248 1236.07 123.004 1236.48 123.522C1236.88 124.04 1237.49 124.299 1238.28 124.299C1239.1 124.299 1239.7 124.04 1240.11 123.522C1240.53 123.004 1240.74 122.248 1240.74 121.254C1240.74 120.26 1240.53 119.504 1240.11 118.986C1239.7 118.468 1239.1 118.209 1238.28 118.209ZM1244.85 116.445H1250V118.587H1249.18V122.892L1252.9 116.466L1257.22 116.445V118.587H1255.46V123.858H1257.22V126H1252.08V123.858H1252.9V119.427L1249.18 126H1244.85V123.858H1246.62V118.587H1244.85V116.445ZM1251.24 114.954C1250.15 114.954 1249.27 114.667 1248.61 114.093C1247.97 113.505 1247.59 112.763 1247.48 111.867L1249.2 111.657C1249.23 112.133 1249.4 112.532 1249.73 112.854C1250.06 113.162 1250.57 113.316 1251.24 113.316C1251.92 113.316 1252.43 113.162 1252.77 112.854C1253.11 112.532 1253.29 112.133 1253.32 111.657L1255.04 111.867C1254.94 112.763 1254.56 113.505 1253.88 114.093C1253.23 114.667 1252.34 114.954 1251.24 114.954ZM1063.44 153.704V151.604H1065.21V141.944L1063.21 141.272L1063.9 139.13L1066.93 140.159C1067.4 139.809 1067.91 139.536 1068.44 139.34C1068.99 139.144 1069.5 139.046 1069.97 139.046C1071.47 139.046 1072.64 139.508 1073.48 140.432C1074.33 141.342 1074.76 142.602 1074.76 144.212C1074.76 145.276 1074.55 146.207 1074.13 147.005C1073.73 147.789 1073.14 148.398 1072.37 148.832C1071.61 149.252 1070.72 149.462 1069.68 149.462C1068.99 149.462 1068.39 149.392 1067.87 149.252V151.604H1069.64V153.704H1063.44ZM1069.64 147.341C1070.41 147.341 1071 147.075 1071.4 146.543C1071.82 145.997 1072.03 145.234 1072.03 144.254C1072.03 143.288 1071.84 142.539 1071.44 142.007C1071.07 141.475 1070.53 141.209 1069.83 141.209C1069.45 141.209 1069.08 141.279 1068.73 141.419C1068.4 141.545 1068.1 141.727 1067.83 141.965V147.026C1068.07 147.124 1068.35 147.201 1068.67 147.257C1068.99 147.313 1069.32 147.341 1069.64 147.341ZM1083.32 148.643C1082.31 149.161 1081.31 149.42 1080.3 149.42C1078.94 149.42 1077.91 149.168 1077.21 148.664C1076.51 148.146 1076.16 147.397 1076.16 146.417C1076.16 144.415 1077.49 143.414 1080.15 143.414H1082.36C1082.36 142.602 1082.18 142.007 1081.83 141.629C1081.49 141.237 1081.07 141.041 1080.57 141.041C1080.26 141.041 1079.98 141.062 1079.71 141.104C1079.46 141.146 1079.21 141.209 1078.95 141.293L1078.76 142.28L1076.56 142.007L1076.96 139.655C1077.53 139.459 1078.12 139.312 1078.72 139.214C1079.34 139.102 1079.99 139.046 1080.68 139.046C1082.08 139.046 1083.15 139.417 1083.89 140.159C1084.64 140.887 1085.02 141.965 1085.02 143.393V146.816L1086.72 147.362L1085.99 149.546L1083.32 148.643ZM1080.21 145.073C1079.78 145.073 1079.44 145.192 1079.21 145.43C1078.98 145.654 1078.87 145.969 1078.87 146.375C1078.87 147.117 1079.37 147.488 1080.38 147.488C1081.08 147.488 1081.74 147.306 1082.36 146.942V145.073H1080.21ZM1096.64 136.778C1096.53 136.904 1096.32 137.044 1096.01 137.198C1095.7 137.338 1095.34 137.492 1094.92 137.66C1094.5 137.814 1094.07 137.968 1093.64 138.122C1093.21 138.262 1092.81 138.395 1092.44 138.521C1091.64 138.801 1091.04 139.102 1090.64 139.424C1090.23 139.732 1089.94 140.117 1089.75 140.579C1089.59 141.027 1089.45 141.608 1089.36 142.322C1089.47 141.874 1089.7 141.475 1090.05 141.125C1090.4 140.775 1090.83 140.502 1091.33 140.306C1091.85 140.096 1092.39 139.991 1092.97 139.991C1093.92 139.991 1094.73 140.194 1095.4 140.6C1096.08 140.992 1096.59 141.545 1096.94 142.259C1097.3 142.959 1097.48 143.771 1097.48 144.695C1097.48 145.647 1097.29 146.48 1096.89 147.194C1096.5 147.908 1095.95 148.461 1095.24 148.853C1094.54 149.231 1093.71 149.42 1092.76 149.42C1091.89 149.42 1091.12 149.28 1090.45 149C1089.79 148.706 1089.24 148.307 1088.79 147.803C1088.34 147.285 1088 146.676 1087.78 145.976C1087.56 145.276 1087.44 144.506 1087.44 143.666C1087.44 142.798 1087.5 141.979 1087.61 141.209C1087.74 140.439 1087.95 139.732 1088.24 139.088C1088.55 138.444 1088.97 137.877 1089.5 137.387C1090.05 136.897 1090.73 136.512 1091.56 136.232C1092.04 136.064 1092.55 135.875 1093.11 135.665C1093.67 135.455 1094.19 135.245 1094.65 135.035C1095.12 134.825 1095.45 134.643 1095.61 134.489L1096.64 136.778ZM1092.74 142.154C1091.13 142.154 1090.32 143.001 1090.32 144.695C1090.32 146.403 1091.08 147.257 1092.59 147.257C1094.1 147.257 1094.86 146.403 1094.86 144.695C1094.86 143.001 1094.15 142.154 1092.74 142.154ZM1104.32 139.046C1105.41 139.046 1106.33 139.256 1107.09 139.676C1107.84 140.082 1108.42 140.677 1108.81 141.461C1109.2 142.231 1109.4 143.162 1109.4 144.254C1109.4 145.878 1108.96 147.145 1108.07 148.055C1107.19 148.965 1105.94 149.42 1104.32 149.42C1103.25 149.42 1102.34 149.217 1101.59 148.811C1100.84 148.405 1100.28 147.817 1099.88 147.047C1099.51 146.263 1099.32 145.332 1099.32 144.254C1099.32 143.162 1099.51 142.231 1099.88 141.461C1100.28 140.677 1100.84 140.082 1101.59 139.676C1102.34 139.256 1103.25 139.046 1104.32 139.046ZM1104.34 141.209C1103.54 141.209 1102.94 141.468 1102.53 141.986C1102.12 142.504 1101.92 143.26 1101.92 144.254C1101.92 145.248 1102.12 146.004 1102.53 146.522C1102.94 147.04 1103.54 147.299 1104.34 147.299C1105.15 147.299 1105.76 147.04 1106.16 146.522C1106.58 146.004 1106.79 145.248 1106.79 144.254C1106.79 143.26 1106.58 142.504 1106.16 141.986C1105.76 141.468 1105.15 141.209 1104.34 141.209ZM1110.57 139.466H1120.54V143.414H1118.63V141.587H1116.89V146.858H1118.63V149H1112.46V146.858H1114.22V141.587H1112.48V143.414H1110.57V139.466ZM1122 149.021V146.9H1123.87V141.587H1122V139.487H1128.45V141.587H1126.37V143.141H1128.01C1128.69 143.141 1129.34 143.218 1129.94 143.372C1130.56 143.526 1131.05 143.806 1131.43 144.212C1131.82 144.618 1132.02 145.206 1132.02 145.976C1132.02 146.9 1131.76 147.642 1131.24 148.202C1130.74 148.748 1130.02 149.021 1129.1 149.021H1122ZM1126.37 146.879H1128.13C1128.55 146.879 1128.89 146.802 1129.14 146.648C1129.41 146.48 1129.54 146.228 1129.54 145.892C1129.54 145.57 1129.42 145.339 1129.18 145.199C1128.95 145.059 1128.62 144.989 1128.22 144.989H1126.37V146.879ZM1133.49 149V146.858V141.587H1132.04V139.466H1137.92V141.587H1136.16V146.858H1137.92V149H1133.49ZM1145.2 136.631H1147.88L1141.06 151.751H1138.37L1145.2 136.631ZM1148.35 139.445H1160.93V141.587H1159.17V146.858H1160.93V149H1155.68V146.858H1156.5V141.587H1152.78V146.858H1153.6V149H1148.35V146.858H1150.12V141.587H1148.35V139.445ZM1162.6 153.704V151.604H1164.36V141.944L1162.37 141.272L1163.06 139.13L1166.08 140.159C1166.56 139.809 1167.06 139.536 1167.6 139.34C1168.14 139.144 1168.65 139.046 1169.13 139.046C1170.63 139.046 1171.8 139.508 1172.64 140.432C1173.49 141.342 1173.92 142.602 1173.92 144.212C1173.92 145.276 1173.71 146.207 1173.29 147.005C1172.88 147.789 1172.29 148.398 1171.52 148.832C1170.77 149.252 1169.87 149.462 1168.84 149.462C1168.15 149.462 1167.55 149.392 1167.03 149.252V151.604H1168.79V153.704H1162.6ZM1168.79 147.341C1169.56 147.341 1170.15 147.075 1170.56 146.543C1170.98 145.997 1171.19 145.234 1171.19 144.254C1171.19 143.288 1170.99 142.539 1170.6 142.007C1170.22 141.475 1169.68 141.209 1168.98 141.209C1168.6 141.209 1168.24 141.279 1167.89 141.419C1167.55 141.545 1167.25 141.727 1166.99 141.965V147.026C1167.23 147.124 1167.51 147.201 1167.83 147.257C1168.15 147.313 1168.47 147.341 1168.79 147.341ZM1182.48 148.643C1181.47 149.161 1180.46 149.42 1179.45 149.42C1178.1 149.42 1177.07 149.168 1176.37 148.664C1175.67 148.146 1175.32 147.397 1175.32 146.417C1175.32 144.415 1176.65 143.414 1179.31 143.414H1181.51C1181.51 142.602 1181.34 142.007 1180.99 141.629C1180.65 141.237 1180.23 141.041 1179.73 141.041C1179.42 141.041 1179.13 141.062 1178.87 141.104C1178.61 141.146 1178.36 141.209 1178.11 141.293L1177.92 142.28L1175.72 142.007L1176.11 139.655C1176.69 139.459 1177.28 139.312 1177.88 139.214C1178.49 139.102 1179.15 139.046 1179.83 139.046C1181.23 139.046 1182.3 139.417 1183.04 140.159C1183.8 140.887 1184.18 141.965 1184.18 143.393V146.816L1185.88 147.362L1185.14 149.546L1182.48 148.643ZM1179.37 145.073C1178.94 145.073 1178.6 145.192 1178.36 145.43C1178.14 145.654 1178.03 145.969 1178.03 146.375C1178.03 147.117 1178.53 147.488 1179.54 147.488C1180.24 147.488 1180.9 147.306 1181.51 146.942V145.073H1179.37ZM1186.66 139.466H1191.7V141.587H1191.09V143.267H1192.58L1193.78 141.587H1192.71V139.466H1198V141.587H1196.47L1194.43 144.275L1196.36 146.879H1198.11V149H1194.89L1192.27 145.367H1191.09V146.879H1191.7V149H1186.66V146.879H1188.43V141.587H1186.66V139.466ZM1199.38 139.466H1209.36V143.414H1207.45V141.587H1205.71V146.858H1207.45V149H1201.27V146.858H1203.04V141.587H1201.3V143.414H1199.38V139.466ZM1210.82 139.445H1215.97V141.587H1215.15V145.892L1218.86 139.466L1223.19 139.445V141.587H1221.43V146.858H1223.19V149H1218.04V146.858H1218.86V142.427L1215.15 149H1210.82V146.858H1212.58V141.587H1210.82V139.445ZM1225.2 139.466H1230.24V141.587H1229.63V143.267H1231.12L1232.32 141.587H1231.24V139.466H1236.54V141.587H1235L1232.97 144.275L1234.9 146.879H1236.64V149H1233.43L1230.8 145.367H1229.63V146.879H1230.24V149H1225.2V146.879H1226.96V141.587H1225.2V139.466ZM1245.4 148.643C1244.39 149.161 1243.38 149.42 1242.37 149.42C1241.01 149.42 1239.98 149.168 1239.28 148.664C1238.58 148.146 1238.23 147.397 1238.23 146.417C1238.23 144.415 1239.56 143.414 1242.22 143.414H1244.43C1244.43 142.602 1244.25 142.007 1243.9 141.629C1243.57 141.237 1243.15 141.041 1242.64 141.041C1242.34 141.041 1242.05 141.062 1241.78 141.104C1241.53 141.146 1241.28 141.209 1241.03 141.293L1240.84 142.28L1238.63 142.007L1239.03 139.655C1239.61 139.459 1240.19 139.312 1240.8 139.214C1241.41 139.102 1242.06 139.046 1242.75 139.046C1244.15 139.046 1245.22 139.417 1245.96 140.159C1246.72 140.887 1247.1 141.965 1247.1 143.393V146.816L1248.8 147.362L1248.06 149.546L1245.4 148.643ZM1242.29 145.073C1241.85 145.073 1241.52 145.192 1241.28 145.43C1241.06 145.654 1240.94 145.969 1240.94 146.375C1240.94 147.117 1241.45 147.488 1242.46 147.488C1243.16 147.488 1243.81 147.306 1244.43 146.942V145.073H1242.29Z" fill="#3B4F60"/>
<path d="M14.7095 28.416C14.7095 28.3947 14.5495 28.352 14.2295 28.288C13.9095 28.2027 13.5148 28.1173 13.0455 28.032C12.5762 27.9467 12.1068 27.904 11.6375 27.904C9.8455 27.904 8.4695 28.4693 7.5095 29.6C6.5495 30.7307 6.0695 32.3733 6.0695 34.528C6.0695 36.704 6.56017 38.368 7.5415 39.52C8.52283 40.672 9.88817 41.248 11.6375 41.248C12.1708 41.248 12.6722 41.184 13.1415 41.056C13.6108 40.9067 13.9842 40.768 14.2615 40.64C14.5602 40.512 14.7095 40.448 14.7095 40.448L15.4135 37.568L18.8695 38.368L17.8455 43.2C17.8455 43.2 17.5788 43.328 17.0455 43.584C16.5335 43.8187 15.8082 44.064 14.8695 44.32C13.9308 44.576 12.8535 44.704 11.6375 44.704C9.69617 44.704 7.97883 44.352 6.4855 43.648C5.0135 42.9227 3.8615 41.8133 3.0295 40.32C2.1975 38.8053 1.7815 36.8747 1.7815 34.528C1.7815 32.3947 2.18683 30.5813 2.9975 29.088C3.80817 27.5947 4.9495 26.4533 6.4215 25.664C7.91483 24.8533 9.64283 24.448 11.6055 24.448C12.9282 24.448 14.0588 24.5867 14.9975 24.864C15.9575 25.1413 16.6828 25.4293 17.1735 25.728C17.6855 26.0053 17.9415 26.144 17.9415 26.144L18.9015 30.944L15.4135 31.712L14.7095 28.416ZM20.954 29.472H36.154V35.488H33.242V32.704H30.586V40.736H33.242V44H23.834V40.736H26.522V32.704H23.866V35.488H20.954V29.472ZM48.9398 43.456C47.4038 44.2453 45.8678 44.64 44.3318 44.64C42.2624 44.64 40.6944 44.256 39.6278 43.488C38.5611 42.6987 38.0278 41.5573 38.0278 40.064C38.0278 37.0133 40.0544 35.488 44.1078 35.488H47.4678C47.4678 34.2507 47.2011 33.344 46.6678 32.768C46.1558 32.1707 45.5158 31.872 44.7478 31.872C44.2784 31.872 43.8411 31.904 43.4358 31.968C43.0518 32.032 42.6678 32.128 42.2838 32.256L41.9958 33.76L38.6358 33.344L39.2438 29.76C40.1184 29.4613 41.0144 29.2373 41.9318 29.088C42.8704 28.9173 43.8624 28.832 44.9078 28.832C47.0411 28.832 48.6731 29.3973 49.8038 30.528C50.9558 31.6373 51.5318 33.28 51.5318 35.456V40.672L54.1238 41.504L53.0037 44.832L48.9398 43.456ZM44.2038 38.016C43.5424 38.016 43.0304 38.1973 42.6678 38.56C42.3264 38.9013 42.1558 39.3813 42.1558 40C42.1558 41.1307 42.9238 41.696 44.4598 41.696C45.5264 41.696 46.5291 41.4187 47.4678 40.864V38.016H44.2038ZM54.7733 51.168V47.968H57.4613V33.248L54.4213 32.224L55.4773 28.96L60.0853 30.528C60.8106 29.9947 61.5786 29.5787 62.3893 29.28C63.2213 28.9813 63.9999 28.832 64.7253 28.832C67.0079 28.832 68.7893 29.536 70.0693 30.944C71.3706 32.3307 72.0213 34.2507 72.0213 36.704C72.0213 38.3253 71.7013 39.744 71.0613 40.96C70.4426 42.1547 69.5466 43.0827 68.3733 43.744C67.2213 44.384 65.8559 44.704 64.2773 44.704C63.2319 44.704 62.3146 44.5973 61.5253 44.384V47.968H64.2133V51.168H54.7733ZM64.2133 41.472C65.3866 41.472 66.2826 41.0667 66.9013 40.256C67.5413 39.424 67.8613 38.2613 67.8613 36.768C67.8613 35.296 67.5626 34.1547 66.9653 33.344C66.3893 32.5333 65.5679 32.128 64.5013 32.128C63.9253 32.128 63.3706 32.2347 62.8373 32.448C62.3253 32.64 61.8666 32.9173 61.4613 33.28V40.992C61.8239 41.1413 62.2506 41.2587 62.7413 41.344C63.2319 41.4293 63.7226 41.472 64.2133 41.472ZM73.6728 29.472H88.8728V35.488H85.9608V32.704H83.3048V40.736H85.9608V44H76.5528V40.736H79.2408V32.704H76.5848V35.488H73.6728V29.472Z" fill="#3B4F60"/>
<path d="M329.298 5.631H334.842V7.983H333.687V10.734H335.115L337.131 7.983H336.27V5.631H341.835V7.983H339.861L337.068 11.448L340.239 15.648H342.36V18H335.955V15.648H337.341L335.367 13.002H333.687V15.648H334.842V18H329.298V15.648H330.999V7.983H329.298V5.631ZM342.536 8.466H352.511V12.414H350.6V10.587H348.857V15.858H350.6V18H344.426V15.858H346.19V10.587H344.447V12.414H342.536V8.466ZM358.68 8.046C359.772 8.046 360.696 8.256 361.452 8.676C362.208 9.082 362.782 9.677 363.174 10.461C363.566 11.231 363.762 12.162 363.762 13.254C363.762 14.878 363.321 16.145 362.439 17.055C361.557 17.965 360.304 18.42 358.68 18.42C357.616 18.42 356.706 18.217 355.95 17.811C355.208 17.405 354.641 16.817 354.249 16.047C353.871 15.263 353.682 14.332 353.682 13.254C353.682 12.162 353.871 11.231 354.249 10.461C354.641 9.677 355.208 9.082 355.95 8.676C356.706 8.256 357.616 8.046 358.68 8.046ZM358.701 10.209C357.903 10.209 357.301 10.468 356.895 10.986C356.489 11.504 356.286 12.26 356.286 13.254C356.286 14.248 356.489 15.004 356.895 15.522C357.301 16.04 357.903 16.299 358.701 16.299C359.513 16.299 360.122 16.04 360.528 15.522C360.948 15.004 361.158 14.248 361.158 13.254C361.158 12.26 360.948 11.504 360.528 10.986C360.122 10.468 359.513 10.209 358.701 10.209ZM376.252 18V15.879H377.05V14.703H375.475C374.649 14.703 373.907 14.577 373.249 14.325C372.591 14.059 372.066 13.688 371.674 13.212C371.296 12.722 371.107 12.141 371.107 11.469C371.107 10.601 371.471 9.88 372.199 9.306C372.941 8.732 374.033 8.445 375.475 8.445H381.481V10.293H379.759V15.879H381.481V18H376.252ZM370.393 18V15.879H372.262L373.501 14.136L375.958 14.43L373.543 18H370.393ZM375.832 12.939H377.05V10.293H375.832C375.412 10.293 375.048 10.335 374.74 10.419C374.446 10.503 374.215 10.643 374.047 10.839C373.893 11.035 373.816 11.308 373.816 11.658C373.816 12.176 374.005 12.519 374.383 12.687C374.761 12.855 375.244 12.939 375.832 12.939ZM384.385 21.003L383.587 20.1C383.587 20.1 383.65 20.016 383.776 19.848C383.902 19.68 384.042 19.47 384.196 19.218C384.364 18.98 384.504 18.742 384.616 18.504C384.14 18.392 383.804 18.182 383.608 17.874C383.412 17.566 383.314 17.244 383.314 16.908C383.314 16.39 383.482 15.977 383.818 15.669C384.154 15.347 384.581 15.186 385.099 15.186C385.561 15.186 385.974 15.368 386.338 15.732C386.716 16.096 386.905 16.523 386.905 17.013C386.905 17.489 386.8 17.937 386.59 18.357C386.394 18.791 386.149 19.176 385.855 19.512C385.561 19.862 385.274 20.163 384.994 20.415C384.728 20.667 384.525 20.863 384.385 21.003ZM393.49 8.466H398.53V10.587H397.921V12.267H399.412L400.609 10.587H399.538V8.466H404.83V10.587H403.297L401.26 13.275L403.192 15.879H404.935V18H401.722L399.097 14.367H397.921V15.879H398.53V18H393.49V15.879H395.254V10.587H393.49V8.466ZM413.688 17.643C412.68 18.161 411.672 18.42 410.664 18.42C409.306 18.42 408.277 18.168 407.577 17.664C406.877 17.146 406.527 16.397 406.527 15.417C406.527 13.415 407.857 12.414 410.517 12.414H412.722C412.722 11.602 412.547 11.007 412.197 10.629C411.861 10.237 411.441 10.041 410.937 10.041C410.629 10.041 410.342 10.062 410.076 10.104C409.824 10.146 409.572 10.209 409.32 10.293L409.131 11.28L406.926 11.007L407.325 8.655C407.899 8.459 408.487 8.312 409.089 8.214C409.705 8.102 410.356 8.046 411.042 8.046C412.442 8.046 413.513 8.417 414.255 9.159C415.011 9.887 415.389 10.965 415.389 12.393V15.816L417.09 16.362L416.355 18.546L413.688 17.643ZM410.58 14.073C410.146 14.073 409.81 14.192 409.572 14.43C409.348 14.654 409.236 14.969 409.236 15.375C409.236 16.117 409.74 16.488 410.748 16.488C411.448 16.488 412.106 16.306 412.722 15.942V14.073H410.58ZM417.874 8.466H422.914V10.587H422.305V12.267H423.796L424.993 10.587H423.922V8.466H429.214V10.587H427.681L425.644 13.275L427.576 15.879H429.319V18H426.106L423.481 14.367H422.305V15.879H422.914V18H417.874V15.879H419.638V10.587H417.874V8.466ZM442.742 8.487C443.988 8.487 444.954 8.711 445.64 9.159C446.34 9.593 446.69 10.202 446.69 10.986C446.69 11.448 446.564 11.854 446.312 12.204C446.074 12.54 445.738 12.792 445.304 12.96C445.878 13.03 446.326 13.254 446.648 13.632C446.97 14.01 447.131 14.493 447.131 15.081C447.131 16.005 446.858 16.726 446.312 17.244C445.766 17.762 444.996 18.021 444.002 18.021H436.064V15.9H437.933V10.587H436.064V8.487H442.742ZM443.036 16.047C443.974 16.047 444.443 15.669 444.443 14.913C444.443 14.227 444.002 13.884 443.12 13.884H440.642V16.047H443.036ZM442.91 12.309C443.624 12.309 443.981 12.008 443.981 11.406C443.981 10.748 443.491 10.419 442.511 10.419H440.642V12.309H442.91ZM458.161 16.824C457.517 17.37 456.845 17.769 456.145 18.021C455.459 18.287 454.78 18.42 454.108 18.42C453.016 18.42 452.064 18.203 451.252 17.769C450.44 17.321 449.81 16.712 449.362 15.942C448.928 15.158 448.711 14.269 448.711 13.275C448.711 12.225 448.921 11.308 449.341 10.524C449.761 9.74 450.342 9.131 451.084 8.697C451.826 8.263 452.687 8.046 453.667 8.046C454.689 8.046 455.571 8.249 456.313 8.655C457.069 9.061 457.65 9.628 458.056 10.356C458.476 11.07 458.686 11.917 458.686 12.897C458.686 13.079 458.672 13.289 458.644 13.527C458.63 13.765 458.602 13.989 458.56 14.199H451.252C451.308 14.675 451.469 15.074 451.735 15.396C452.001 15.718 452.337 15.956 452.743 16.11C453.163 16.264 453.618 16.341 454.108 16.341C454.696 16.341 455.263 16.243 455.809 16.047C456.355 15.851 456.852 15.578 457.3 15.228L458.161 16.824ZM456.04 12.435C456.04 11.777 455.837 11.245 455.431 10.839C455.025 10.419 454.465 10.209 453.751 10.209C453.107 10.209 452.547 10.419 452.071 10.839C451.595 11.245 451.343 11.777 451.315 12.435H456.04ZM458.984 21.003L458.963 15.858H460.517C460.797 15.69 461.021 15.424 461.189 15.06C461.357 14.696 461.49 14.29 461.588 13.842C461.686 13.394 461.756 12.946 461.798 12.498C461.854 12.036 461.896 11.637 461.924 11.301L461.987 10.608H460.076V8.466H470.786V10.608H469.001V15.858H470.786V21.003H468.182V18H461.588V21.003H458.984ZM462.827 15.858H466.334V10.608H464.087L463.982 11.532C463.884 12.624 463.744 13.555 463.562 14.325C463.394 15.095 463.149 15.606 462.827 15.858ZM474.935 23.229C474.627 23.229 474.305 23.187 473.969 23.103C473.633 23.033 473.283 22.921 472.919 22.767L473.423 20.688C473.703 20.8 473.948 20.884 474.158 20.94C474.382 20.996 474.627 21.024 474.893 21.024C475.215 21.024 475.488 20.933 475.712 20.751C475.936 20.583 476.16 20.289 476.384 19.869C476.608 19.449 476.867 18.882 477.161 18.168L480.332 10.587H479.282L479.408 8.466H484.616V10.587H482.957L478.946 19.491C478.344 20.835 477.728 21.794 477.098 22.368C476.482 22.942 475.761 23.229 474.935 23.229ZM477.602 19.365L473.486 10.587H471.932V8.466H477.329V10.587H476.195L478.862 17.013L477.602 19.365ZM499.263 21.003V18H485.55V15.858H487.293V10.587H485.55V8.445H490.8V10.587H489.981V15.858H492.249V10.587V8.466H495.735V10.587H494.916V15.858H497.184V10.587V8.466H501.615V10.587H499.851V15.858H501.615V21.003H499.263ZM503.637 8.445H508.782V10.587H507.963V14.892L511.68 8.466L516.006 8.445V10.587H514.242V15.858H516.006V18H510.861V15.858H511.68V11.427L507.963 18H503.637V15.858H505.401V10.587H503.637V8.445ZM518.013 8.445H523.158V10.587H522.339V14.892L526.056 8.466L530.382 8.445V10.587H528.618V15.858H530.382V18H525.237V15.858H526.056V11.427L522.339 18H518.013V15.858H519.777V10.587H518.013V8.445ZM524.397 6.954C523.305 6.954 522.43 6.667 521.772 6.093C521.128 5.505 520.75 4.763 520.638 3.867L522.36 3.657C522.388 4.133 522.563 4.532 522.885 4.854C523.221 5.162 523.725 5.316 524.397 5.316C525.083 5.316 525.594 5.162 525.93 4.854C526.266 4.532 526.448 4.133 526.476 3.657L528.198 3.867C528.1 4.763 527.715 5.505 527.043 6.093C526.385 6.667 525.503 6.954 524.397 6.954ZM531.78 6.156C532.144 5.876 532.669 5.645 533.355 5.463C534.041 5.267 534.727 5.169 535.413 5.169C536.757 5.169 537.772 5.442 538.458 5.988C539.144 6.52 539.487 7.304 539.487 8.34C539.487 8.942 539.347 9.439 539.067 9.831C538.801 10.223 538.318 10.601 537.618 10.965C537.072 11.245 536.659 11.469 536.379 11.637C536.113 11.805 535.931 11.952 535.833 12.078C535.749 12.204 535.707 12.358 535.707 12.54C535.707 12.652 535.728 12.771 535.77 12.897C535.826 13.009 535.924 13.17 536.064 13.38L534.51 14.115C534.174 13.793 533.936 13.485 533.796 13.191C533.67 12.883 533.607 12.519 533.607 12.099C533.607 11.763 533.67 11.469 533.796 11.217C533.936 10.965 534.181 10.713 534.531 10.461C534.895 10.195 535.406 9.887 536.064 9.537C536.33 9.397 536.533 9.271 536.673 9.159C536.827 9.033 536.932 8.907 536.988 8.781C537.058 8.641 537.093 8.487 537.093 8.319C537.093 7.941 536.96 7.647 536.694 7.437C536.442 7.213 536.085 7.101 535.623 7.101C535.357 7.101 535.056 7.129 534.72 7.185C534.398 7.241 534.111 7.325 533.859 7.437L533.607 9.138L531.486 8.907L531.78 6.156ZM535.455 14.829C535.945 14.829 536.372 15.011 536.736 15.375C537.1 15.739 537.282 16.166 537.282 16.656C537.282 17.132 537.1 17.552 536.736 17.916C536.372 18.28 535.945 18.462 535.455 18.462C534.979 18.462 534.559 18.28 534.195 17.916C533.831 17.552 533.649 17.132 533.649 16.656C533.649 16.166 533.824 15.739 534.174 15.375C534.538 15.011 534.965 14.829 535.455 14.829ZM334.345 41V38.648H337.159V35.981C336.809 36.149 336.431 36.289 336.025 36.401C335.633 36.513 335.227 36.569 334.807 36.569C333.827 36.569 332.987 36.387 332.287 36.023C331.587 35.659 331.048 35.134 330.67 34.448C330.306 33.748 330.124 32.908 330.124 31.928V30.983H328.423V28.631H333.946V30.983H332.791V31.928C332.791 32.74 332.973 33.363 333.337 33.797C333.715 34.217 334.331 34.427 335.185 34.427C335.675 34.427 336.081 34.378 336.403 34.28C336.725 34.182 336.977 34.077 337.159 33.965V30.983H336.025V28.631H341.59V30.983H339.868V38.648H341.59V41H334.345ZM343.12 31.466H353.095V35.414H351.184V33.587H349.441V38.858H351.184V41H345.01V38.858H346.774V33.587H345.031V35.414H343.12V31.466ZM359.265 31.046C360.357 31.046 361.281 31.256 362.037 31.676C362.793 32.082 363.367 32.677 363.759 33.461C364.151 34.231 364.347 35.162 364.347 36.254C364.347 37.878 363.906 39.145 363.024 40.055C362.142 40.965 360.889 41.42 359.265 41.42C358.201 41.42 357.291 41.217 356.535 40.811C355.793 40.405 355.226 39.817 354.834 39.047C354.456 38.263 354.267 37.332 354.267 36.254C354.267 35.162 354.456 34.231 354.834 33.461C355.226 32.677 355.793 32.082 356.535 31.676C357.291 31.256 358.201 31.046 359.265 31.046ZM359.286 33.209C358.488 33.209 357.886 33.468 357.48 33.986C357.074 34.504 356.871 35.26 356.871 36.254C356.871 37.248 357.074 38.004 357.48 38.522C357.886 39.04 358.488 39.299 359.286 39.299C360.098 39.299 360.707 39.04 361.113 38.522C361.533 38.004 361.743 37.248 361.743 36.254C361.743 35.26 361.533 34.504 361.113 33.986C360.707 33.468 360.098 33.209 359.286 33.209ZM370.915 41V38.858H372.7L375.22 36.086L372.616 33.587H370.915V31.466H376.249V33.587H375.64L376.858 34.91L378.139 33.587H377.404V31.466H382.465V33.587H380.869L378.475 36.275L381.205 38.858H382.822V41H377.446V38.858H378.307L376.837 37.409L375.43 38.858H376.249V41H370.915ZM388.899 31.046C389.991 31.046 390.915 31.256 391.671 31.676C392.427 32.082 393.001 32.677 393.393 33.461C393.785 34.231 393.981 35.162 393.981 36.254C393.981 37.878 393.54 39.145 392.658 40.055C391.776 40.965 390.523 41.42 388.899 41.42C387.835 41.42 386.925 41.217 386.169 40.811C385.427 40.405 384.86 39.817 384.468 39.047C384.09 38.263 383.901 37.332 383.901 36.254C383.901 35.162 384.09 34.231 384.468 33.461C384.86 32.677 385.427 32.082 386.169 31.676C386.925 31.256 387.835 31.046 388.899 31.046ZM388.92 33.209C388.122 33.209 387.52 33.468 387.114 33.986C386.708 34.504 386.505 35.26 386.505 36.254C386.505 37.248 386.708 38.004 387.114 38.522C387.52 39.04 388.122 39.299 388.92 39.299C389.732 39.299 390.341 39.04 390.747 38.522C391.167 38.004 391.377 37.248 391.377 36.254C391.377 35.26 391.167 34.504 390.747 33.986C390.341 33.468 389.732 33.209 388.92 33.209ZM401.889 36.968C401.595 37.136 401.224 37.29 400.776 37.43C400.342 37.556 399.817 37.619 399.201 37.619C398.501 37.619 397.941 37.514 397.521 37.304C397.115 37.08 396.807 36.8 396.597 36.464C396.387 36.114 396.247 35.736 396.177 35.33C396.121 34.91 396.1 34.504 396.114 34.112V33.587H394.371V31.445H399.621V33.587H398.781V33.65C398.781 34.112 398.802 34.511 398.844 34.847C398.9 35.169 399.026 35.421 399.222 35.603C399.418 35.785 399.733 35.876 400.167 35.876C400.503 35.876 400.818 35.834 401.112 35.75C401.406 35.666 401.665 35.561 401.889 35.435V33.587H401.07V31.445H406.32V33.587H404.556V38.858H406.32V41H400.146V38.858H401.889V36.968ZM409.833 46.229C409.525 46.229 409.203 46.187 408.867 46.103C408.531 46.033 408.181 45.921 407.817 45.767L408.321 43.688C408.601 43.8 408.846 43.884 409.056 43.94C409.28 43.996 409.525 44.024 409.791 44.024C410.113 44.024 410.386 43.933 410.61 43.751C410.834 43.583 411.058 43.289 411.282 42.869C411.506 42.449 411.765 41.882 412.059 41.168L415.23 33.587H414.18L414.306 31.466H419.514V33.587H417.855L413.844 42.491C413.242 43.835 412.626 44.794 411.996 45.368C411.38 45.942 410.659 46.229 409.833 46.229ZM412.5 42.365L408.384 33.587H406.83V31.466H412.227V33.587H411.093L413.76 40.013L412.5 42.365ZM425.217 44.003L425.196 38.858H426.75C427.03 38.69 427.254 38.424 427.422 38.06C427.59 37.696 427.723 37.29 427.821 36.842C427.919 36.394 427.989 35.946 428.031 35.498C428.087 35.036 428.129 34.637 428.157 34.301L428.22 33.608H426.309V31.466H437.019V33.608H435.234V38.858H437.019V44.003H434.415V41H427.821V44.003H425.217ZM429.06 38.858H432.567V33.608H430.32L430.215 34.532C430.117 35.624 429.977 36.555 429.795 37.325C429.627 38.095 429.382 38.606 429.06 38.858ZM443.552 31.046C444.644 31.046 445.568 31.256 446.324 31.676C447.08 32.082 447.654 32.677 448.046 33.461C448.438 34.231 448.634 35.162 448.634 36.254C448.634 37.878 448.193 39.145 447.311 40.055C446.429 40.965 445.176 41.42 443.552 41.42C442.488 41.42 441.578 41.217 440.822 40.811C440.08 40.405 439.513 39.817 439.121 39.047C438.743 38.263 438.554 37.332 438.554 36.254C438.554 35.162 438.743 34.231 439.121 33.461C439.513 32.677 440.08 32.082 440.822 31.676C441.578 31.256 442.488 31.046 443.552 31.046ZM443.573 33.209C442.775 33.209 442.173 33.468 441.767 33.986C441.361 34.504 441.158 35.26 441.158 36.254C441.158 37.248 441.361 38.004 441.767 38.522C442.173 39.04 442.775 39.299 443.573 39.299C444.385 39.299 444.994 39.04 445.4 38.522C445.82 38.004 446.03 37.248 446.03 36.254C446.03 35.26 445.82 34.504 445.4 33.986C444.994 33.468 444.385 33.209 443.573 33.209ZM450.143 31.466H455.393V33.587H454.574V35.141H458.291V33.587H457.472V31.466H462.722V33.587H460.958V38.858H462.722V41H457.472V38.858H458.291V37.283H454.574V38.858H455.393V41H450.143V38.858H451.907V33.587H450.143V31.466ZM473.49 39.824C472.846 40.37 472.174 40.769 471.474 41.021C470.788 41.287 470.109 41.42 469.437 41.42C468.345 41.42 467.393 41.203 466.581 40.769C465.769 40.321 465.139 39.712 464.691 38.942C464.257 38.158 464.04 37.269 464.04 36.275C464.04 35.225 464.25 34.308 464.67 33.524C465.09 32.74 465.671 32.131 466.413 31.697C467.155 31.263 468.016 31.046 468.996 31.046C470.018 31.046 470.9 31.249 471.642 31.655C472.398 32.061 472.979 32.628 473.385 33.356C473.805 34.07 474.015 34.917 474.015 35.897C474.015 36.079 474.001 36.289 473.973 36.527C473.959 36.765 473.931 36.989 473.889 37.199H466.581C466.637 37.675 466.798 38.074 467.064 38.396C467.33 38.718 467.666 38.956 468.072 39.11C468.492 39.264 468.947 39.341 469.437 39.341C470.025 39.341 470.592 39.243 471.138 39.047C471.684 38.851 472.181 38.578 472.629 38.228L473.49 39.824ZM471.369 35.435C471.369 34.777 471.166 34.245 470.76 33.839C470.354 33.419 469.794 33.209 469.08 33.209C468.436 33.209 467.876 33.419 467.4 33.839C466.924 34.245 466.672 34.777 466.644 35.435H471.369ZM481.79 33.251C481.566 33.181 481.349 33.132 481.139 33.104C480.929 33.076 480.733 33.062 480.551 33.062C479.725 33.062 479.095 33.342 478.661 33.902C478.241 34.448 478.031 35.26 478.031 36.338C478.031 37.248 478.262 37.969 478.724 38.501C479.186 39.033 479.76 39.299 480.446 39.299C480.922 39.299 481.412 39.208 481.916 39.026C482.42 38.83 482.917 38.557 483.407 38.207L484.478 39.782C484.044 40.118 483.617 40.412 483.197 40.664C482.777 40.902 482.343 41.084 481.895 41.21C481.461 41.35 480.971 41.42 480.425 41.42C479.375 41.42 478.465 41.231 477.695 40.853C476.939 40.461 476.351 39.887 475.931 39.131C475.525 38.375 475.322 37.444 475.322 36.338C475.322 35.176 475.518 34.203 475.91 33.419C476.302 32.621 476.883 32.026 477.653 31.634C478.423 31.228 479.375 31.025 480.509 31.025C481.055 31.025 481.601 31.081 482.147 31.193C482.707 31.291 483.246 31.438 483.764 31.634L484.352 34.511L482.105 34.994L481.79 33.251ZM485.608 31.466H495.583V35.414H493.672V33.587H491.929V38.858H493.672V41H487.498V38.858H489.262V33.587H487.519V35.414H485.608V31.466ZM497.044 31.445H502.189V33.587H501.37V37.892L505.087 31.466L509.413 31.445V33.587H507.649V38.858H509.413V41H504.268V38.858H505.087V34.427L501.37 41H497.044V38.858H498.808V33.587H497.044V31.445ZM515.985 44.003L515.964 38.858H517.518C517.798 38.69 518.022 38.424 518.19 38.06C518.358 37.696 518.491 37.29 518.589 36.842C518.687 36.394 518.757 35.946 518.799 35.498C518.855 35.036 518.897 34.637 518.925 34.301L518.988 33.608H517.077V31.466H527.787V33.608H526.002V38.858H527.787V44.003H525.183V41H518.589V44.003H515.985ZM519.828 38.858H523.335V33.608H521.088L520.983 34.532C520.885 35.624 520.745 36.555 520.563 37.325C520.395 38.095 520.15 38.606 519.828 38.858ZM534.319 31.046C535.411 31.046 536.335 31.256 537.091 31.676C537.847 32.082 538.421 32.677 538.813 33.461C539.205 34.231 539.401 35.162 539.401 36.254C539.401 37.878 538.96 39.145 538.078 40.055C537.196 40.965 535.943 41.42 534.319 41.42C533.255 41.42 532.345 41.217 531.589 40.811C530.847 40.405 530.28 39.817 529.888 39.047C529.51 38.263 529.321 37.332 529.321 36.254C529.321 35.162 529.51 34.231 529.888 33.461C530.28 32.677 530.847 32.082 531.589 31.676C532.345 31.256 533.255 31.046 534.319 31.046ZM534.34 33.209C533.542 33.209 532.94 33.468 532.534 33.986C532.128 34.504 531.925 35.26 531.925 36.254C531.925 37.248 532.128 38.004 532.534 38.522C532.94 39.04 533.542 39.299 534.34 39.299C535.152 39.299 535.761 39.04 536.167 38.522C536.587 38.004 536.797 37.248 536.797 36.254C536.797 35.26 536.587 34.504 536.167 33.986C535.761 33.468 535.152 33.209 534.34 33.209ZM370.561 69.229C370.253 69.229 369.931 69.187 369.595 69.103C369.259 69.033 368.909 68.921 368.545 68.767L369.049 66.688C369.329 66.8 369.574 66.884 369.784 66.94C370.008 66.996 370.253 67.024 370.519 67.024C370.841 67.024 371.114 66.933 371.338 66.751C371.562 66.583 371.786 66.289 372.01 65.869C372.234 65.449 372.493 64.882 372.787 64.168L375.958 56.587H374.908L375.034 54.466H380.242V56.587H378.583L374.572 65.491C373.97 66.835 373.354 67.794 372.724 68.368C372.108 68.942 371.387 69.229 370.561 69.229ZM373.228 65.365L369.112 56.587H367.558V54.466H372.955V56.587H371.821L374.488 63.013L373.228 65.365ZM388.415 59.968C388.121 60.136 387.75 60.29 387.302 60.43C386.868 60.556 386.343 60.619 385.727 60.619C385.027 60.619 384.467 60.514 384.047 60.304C383.641 60.08 383.333 59.8 383.123 59.464C382.913 59.114 382.773 58.736 382.703 58.33C382.647 57.91 382.626 57.504 382.64 57.112V56.587H380.897V54.445H386.147V56.587H385.307V56.65C385.307 57.112 385.328 57.511 385.37 57.847C385.426 58.169 385.552 58.421 385.748 58.603C385.944 58.785 386.259 58.876 386.693 58.876C387.029 58.876 387.344 58.834 387.638 58.75C387.932 58.666 388.191 58.561 388.415 58.435V56.587H387.596V54.445H392.846V56.587H391.082V61.858H392.846V64H386.672V61.858H388.415V59.968ZM401.579 63.643C400.571 64.161 399.563 64.42 398.555 64.42C397.197 64.42 396.168 64.168 395.468 63.664C394.768 63.146 394.418 62.397 394.418 61.417C394.418 59.415 395.748 58.414 398.408 58.414H400.613C400.613 57.602 400.438 57.007 400.088 56.629C399.752 56.237 399.332 56.041 398.828 56.041C398.52 56.041 398.233 56.062 397.967 56.104C397.715 56.146 397.463 56.209 397.211 56.293L397.022 57.28L394.817 57.007L395.216 54.655C395.79 54.459 396.378 54.312 396.98 54.214C397.596 54.102 398.247 54.046 398.933 54.046C400.333 54.046 401.404 54.417 402.146 55.159C402.902 55.887 403.28 56.965 403.28 58.393V61.816L404.981 62.362L404.246 64.546L401.579 63.643ZM398.471 60.073C398.037 60.073 397.701 60.192 397.463 60.43C397.239 60.654 397.127 60.969 397.127 61.375C397.127 62.117 397.631 62.488 398.639 62.488C399.339 62.488 399.997 62.306 400.613 61.942V60.073H398.471ZM412.043 56.251C411.819 56.181 411.602 56.132 411.392 56.104C411.182 56.076 410.986 56.062 410.804 56.062C409.978 56.062 409.348 56.342 408.914 56.902C408.494 57.448 408.284 58.26 408.284 59.338C408.284 60.248 408.515 60.969 408.977 61.501C409.439 62.033 410.013 62.299 410.699 62.299C411.175 62.299 411.665 62.208 412.169 62.026C412.673 61.83 413.17 61.557 413.66 61.207L414.731 62.782C414.297 63.118 413.87 63.412 413.45 63.664C413.03 63.902 412.596 64.084 412.148 64.21C411.714 64.35 411.224 64.42 410.678 64.42C409.628 64.42 408.718 64.231 407.948 63.853C407.192 63.461 406.604 62.887 406.184 62.131C405.778 61.375 405.575 60.444 405.575 59.338C405.575 58.176 405.771 57.203 406.163 56.419C406.555 55.621 407.136 55.026 407.906 54.634C408.676 54.228 409.628 54.025 410.762 54.025C411.308 54.025 411.854 54.081 412.4 54.193C412.96 54.291 413.499 54.438 414.017 54.634L414.605 57.511L412.358 57.994L412.043 56.251ZM415.861 54.466H425.836V58.414H423.925V56.587H422.182V61.858H423.925V64H417.751V61.858H419.515V56.587H417.772V58.414H415.861V54.466ZM427.297 54.466H432.547V56.587H431.728V58.141H435.445V56.587H434.626V54.466H439.876V56.587H438.112V61.858H439.876V64H434.626V61.858H435.445V60.283H431.728V61.858H432.547V64H427.297V61.858H429.061V56.587H427.297V54.466ZM441.899 54.445H447.044V56.587H446.225V60.892L449.942 54.466L454.268 54.445V56.587H452.504V61.858H454.268V64H449.123V61.858H449.942V57.427L446.225 64H441.899V61.858H443.663V56.587H441.899V54.445ZM456.275 54.466H461.315V56.587H460.706V58.267H462.197L463.394 56.587H462.323V54.466H467.615V56.587H466.082L464.045 59.275L465.977 61.879H467.72V64H464.507L461.882 60.367H460.706V61.879H461.315V64H456.275V61.879H458.039V56.587H456.275V54.466ZM473.821 54.046C474.913 54.046 475.837 54.256 476.593 54.676C477.349 55.082 477.923 55.677 478.315 56.461C478.707 57.231 478.903 58.162 478.903 59.254C478.903 60.878 478.462 62.145 477.58 63.055C476.698 63.965 475.445 64.42 473.821 64.42C472.757 64.42 471.847 64.217 471.091 63.811C470.349 63.405 469.782 62.817 469.39 62.047C469.012 61.263 468.823 60.332 468.823 59.254C468.823 58.162 469.012 57.231 469.39 56.461C469.782 55.677 470.349 55.082 471.091 54.676C471.847 54.256 472.757 54.046 473.821 54.046ZM473.842 56.209C473.044 56.209 472.442 56.468 472.036 56.986C471.63 57.504 471.427 58.26 471.427 59.254C471.427 60.248 471.63 61.004 472.036 61.522C472.442 62.04 473.044 62.299 473.842 62.299C474.654 62.299 475.263 62.04 475.669 61.522C476.089 61.004 476.299 60.248 476.299 59.254C476.299 58.26 476.089 57.504 475.669 56.986C475.263 56.468 474.654 56.209 473.842 56.209ZM487.09 54.487C488.336 54.487 489.302 54.711 489.988 55.159C490.688 55.593 491.038 56.202 491.038 56.986C491.038 57.448 490.912 57.854 490.66 58.204C490.422 58.54 490.086 58.792 489.652 58.96C490.226 59.03 490.674 59.254 490.996 59.632C491.318 60.01 491.479 60.493 491.479 61.081C491.479 62.005 491.206 62.726 490.66 63.244C490.114 63.762 489.344 64.021 488.35 64.021H480.412V61.9H482.281V56.587H480.412V54.487H487.09ZM487.384 62.047C488.322 62.047 488.791 61.669 488.791 60.913C488.791 60.227 488.35 59.884 487.468 59.884H484.99V62.047H487.384ZM487.258 58.309C487.972 58.309 488.329 58.008 488.329 57.406C488.329 56.748 487.839 56.419 486.859 56.419H484.99V58.309H487.258ZM492.744 52.156C493.108 51.876 493.633 51.645 494.319 51.463C495.005 51.267 495.691 51.169 496.377 51.169C497.721 51.169 498.736 51.442 499.422 51.988C500.108 52.52 500.451 53.304 500.451 54.34C500.451 54.942 500.311 55.439 500.031 55.831C499.765 56.223 499.282 56.601 498.582 56.965C498.036 57.245 497.623 57.469 497.343 57.637C497.077 57.805 496.895 57.952 496.797 58.078C496.713 58.204 496.671 58.358 496.671 58.54C496.671 58.652 496.692 58.771 496.734 58.897C496.79 59.009 496.888 59.17 497.028 59.38L495.474 60.115C495.138 59.793 494.9 59.485 494.76 59.191C494.634 58.883 494.571 58.519 494.571 58.099C494.571 57.763 494.634 57.469 494.76 57.217C494.9 56.965 495.145 56.713 495.495 56.461C495.859 56.195 496.37 55.887 497.028 55.537C497.294 55.397 497.497 55.271 497.637 55.159C497.791 55.033 497.896 54.907 497.952 54.781C498.022 54.641 498.057 54.487 498.057 54.319C498.057 53.941 497.924 53.647 497.658 53.437C497.406 53.213 497.049 53.101 496.587 53.101C496.321 53.101 496.02 53.129 495.684 53.185C495.362 53.241 495.075 53.325 494.823 53.437L494.571 55.138L492.45 54.907L492.744 52.156ZM496.419 60.829C496.909 60.829 497.336 61.011 497.7 61.375C498.064 61.739 498.246 62.166 498.246 62.656C498.246 63.132 498.064 63.552 497.7 63.916C497.336 64.28 496.909 64.462 496.419 64.462C495.943 64.462 495.523 64.28 495.159 63.916C494.795 63.552 494.613 63.132 494.613 62.656C494.613 62.166 494.788 61.739 495.138 61.375C495.502 61.011 495.929 60.829 496.419 60.829Z" fill="#3B4F60"/>
<path d="M802.854 29.5V27.148H804.933L807.999 19.483H806.361V17.131H811.401L815.286 27.148H817.134V29.5H811.569V27.148H812.598L811.968 25.363H807.915L807.285 27.148H808.44V29.5H802.854ZM808.545 23.641H811.38L809.973 19.63L808.545 23.641ZM824.535 21.751C824.311 21.681 824.094 21.632 823.884 21.604C823.674 21.576 823.478 21.562 823.296 21.562C822.47 21.562 821.84 21.842 821.406 22.402C820.986 22.948 820.776 23.76 820.776 24.838C820.776 25.748 821.007 26.469 821.469 27.001C821.931 27.533 822.505 27.799 823.191 27.799C823.667 27.799 824.157 27.708 824.661 27.526C825.165 27.33 825.662 27.057 826.152 26.707L827.223 28.282C826.789 28.618 826.362 28.912 825.942 29.164C825.522 29.402 825.088 29.584 824.64 29.71C824.206 29.85 823.716 29.92 823.17 29.92C822.12 29.92 821.21 29.731 820.44 29.353C819.684 28.961 819.096 28.387 818.676 27.631C818.27 26.875 818.067 25.944 818.067 24.838C818.067 23.676 818.263 22.703 818.655 21.919C819.047 21.121 819.628 20.526 820.398 20.134C821.168 19.728 822.12 19.525 823.254 19.525C823.8 19.525 824.346 19.581 824.892 19.693C825.452 19.791 825.991 19.938 826.509 20.134L827.097 23.011L824.85 23.494L824.535 21.751ZM828.9 19.945H841.479V22.087H839.715V27.358H841.479V29.5H836.229V27.358H837.048V22.087H833.331V27.358H834.15V29.5H828.9V27.358H830.664V22.087H828.9V19.945ZM852.247 28.324C851.603 28.87 850.931 29.269 850.231 29.521C849.545 29.787 848.866 29.92 848.194 29.92C847.102 29.92 846.15 29.703 845.338 29.269C844.526 28.821 843.896 28.212 843.448 27.442C843.014 26.658 842.797 25.769 842.797 24.775C842.797 23.725 843.007 22.808 843.427 22.024C843.847 21.24 844.428 20.631 845.17 20.197C845.912 19.763 846.773 19.546 847.753 19.546C848.775 19.546 849.657 19.749 850.399 20.155C851.155 20.561 851.736 21.128 852.142 21.856C852.562 22.57 852.772 23.417 852.772 24.397C852.772 24.579 852.758 24.789 852.73 25.027C852.716 25.265 852.688 25.489 852.646 25.699H845.338C845.394 26.175 845.555 26.574 845.821 26.896C846.087 27.218 846.423 27.456 846.829 27.61C847.249 27.764 847.704 27.841 848.194 27.841C848.782 27.841 849.349 27.743 849.895 27.547C850.441 27.351 850.938 27.078 851.386 26.728L852.247 28.324ZM850.126 23.935C850.126 23.277 849.923 22.745 849.517 22.339C849.111 21.919 848.551 21.709 847.837 21.709C847.193 21.709 846.633 21.919 846.157 22.339C845.681 22.745 845.429 23.277 845.401 23.935H850.126ZM854.268 19.966H859.308V22.087H858.699V23.767H860.19L861.387 22.087H860.316V19.966H865.608V22.087H864.075L862.038 24.775L863.97 27.379H865.713V29.5H862.5L859.875 25.867H858.699V27.379H859.308V29.5H854.268V27.379H856.032V22.087H854.268V19.966ZM866.99 19.966H876.965V23.914H875.054V22.087H873.311V27.358H875.054V29.5H868.88V27.358H870.644V22.087H868.901V23.914H866.99V19.966ZM878.426 29.521V27.4H880.295V22.087H878.426V19.987H884.873V22.087H882.794V23.641H884.432C885.118 23.641 885.762 23.718 886.364 23.872C886.98 24.026 887.477 24.306 887.855 24.712C888.247 25.118 888.443 25.706 888.443 26.476C888.443 27.4 888.184 28.142 887.666 28.702C887.162 29.248 886.448 29.521 885.524 29.521H878.426ZM882.794 27.379H884.558C884.978 27.379 885.314 27.302 885.566 27.148C885.832 26.98 885.965 26.728 885.965 26.392C885.965 26.07 885.846 25.839 885.608 25.699C885.37 25.559 885.048 25.489 884.642 25.489H882.794V27.379ZM889.913 29.5V27.358V22.087H888.464V19.966H894.344V22.087H892.58V27.358H894.344V29.5H889.913ZM900.915 34.204V32.104H902.679V22.444L900.684 21.772L901.377 19.63L904.401 20.659C904.877 20.309 905.381 20.036 905.913 19.84C906.459 19.644 906.97 19.546 907.446 19.546C908.944 19.546 910.113 20.008 910.953 20.932C911.807 21.842 912.234 23.102 912.234 24.712C912.234 25.776 912.024 26.707 911.604 27.505C911.198 28.289 910.61 28.898 909.84 29.332C909.084 29.752 908.188 29.962 907.152 29.962C906.466 29.962 905.864 29.892 905.346 29.752V32.104H907.11V34.204H900.915ZM907.11 27.841C907.88 27.841 908.468 27.575 908.874 27.043C909.294 26.497 909.504 25.734 909.504 24.754C909.504 23.788 909.308 23.039 908.916 22.507C908.538 21.975 907.999 21.709 907.299 21.709C906.921 21.709 906.557 21.779 906.207 21.919C905.871 22.045 905.57 22.227 905.304 22.465V27.526C905.542 27.624 905.822 27.701 906.144 27.757C906.466 27.813 906.788 27.841 907.11 27.841ZM920.793 29.143C919.785 29.661 918.777 29.92 917.769 29.92C916.411 29.92 915.382 29.668 914.682 29.164C913.982 28.646 913.632 27.897 913.632 26.917C913.632 24.915 914.962 23.914 917.622 23.914H919.827C919.827 23.102 919.652 22.507 919.302 22.129C918.966 21.737 918.546 21.541 918.042 21.541C917.734 21.541 917.447 21.562 917.181 21.604C916.929 21.646 916.677 21.709 916.425 21.793L916.236 22.78L914.031 22.507L914.43 20.155C915.004 19.959 915.592 19.812 916.194 19.714C916.81 19.602 917.461 19.546 918.147 19.546C919.547 19.546 920.618 19.917 921.36 20.659C922.116 21.387 922.494 22.465 922.494 23.893V27.316L924.195 27.862L923.46 30.046L920.793 29.143ZM917.685 25.573C917.251 25.573 916.915 25.692 916.677 25.93C916.453 26.154 916.341 26.469 916.341 26.875C916.341 27.617 916.845 27.988 917.853 27.988C918.553 27.988 919.211 27.806 919.827 27.442V25.573H917.685ZM934.114 17.278C934.002 17.404 933.792 17.544 933.484 17.698C933.176 17.838 932.812 17.992 932.392 18.16C931.972 18.314 931.545 18.468 931.111 18.622C930.677 18.762 930.278 18.895 929.914 19.021C929.116 19.301 928.514 19.602 928.108 19.924C927.702 20.232 927.408 20.617 927.226 21.079C927.058 21.527 926.925 22.108 926.827 22.822C926.939 22.374 927.17 21.975 927.52 21.625C927.87 21.275 928.297 21.002 928.801 20.806C929.319 20.596 929.865 20.491 930.439 20.491C931.391 20.491 932.203 20.694 932.875 21.1C933.547 21.492 934.058 22.045 934.408 22.759C934.772 23.459 934.954 24.271 934.954 25.195C934.954 26.147 934.758 26.98 934.366 27.694C933.974 28.408 933.421 28.961 932.707 29.353C932.007 29.731 931.181 29.92 930.229 29.92C929.361 29.92 928.591 29.78 927.919 29.5C927.261 29.206 926.708 28.807 926.26 28.303C925.812 27.785 925.476 27.176 925.252 26.476C925.028 25.776 924.916 25.006 924.916 24.166C924.916 23.298 924.972 22.479 925.084 21.709C925.21 20.939 925.42 20.232 925.714 19.588C926.022 18.944 926.442 18.377 926.974 17.887C927.52 17.397 928.206 17.012 929.032 16.732C929.508 16.564 930.026 16.375 930.586 16.165C931.146 15.955 931.657 15.745 932.119 15.535C932.595 15.325 932.917 15.143 933.085 14.989L934.114 17.278ZM930.208 22.654C928.598 22.654 927.793 23.501 927.793 25.195C927.793 26.903 928.549 27.757 930.061 27.757C931.573 27.757 932.329 26.903 932.329 25.195C932.329 23.501 931.622 22.654 930.208 22.654ZM941.787 19.546C942.879 19.546 943.803 19.756 944.559 20.176C945.315 20.582 945.889 21.177 946.281 21.961C946.673 22.731 946.869 23.662 946.869 24.754C946.869 26.378 946.428 27.645 945.546 28.555C944.664 29.465 943.411 29.92 941.787 29.92C940.723 29.92 939.813 29.717 939.057 29.311C938.315 28.905 937.748 28.317 937.356 27.547C936.978 26.763 936.789 25.832 936.789 24.754C936.789 23.662 936.978 22.731 937.356 21.961C937.748 21.177 938.315 20.582 939.057 20.176C939.813 19.756 940.723 19.546 941.787 19.546ZM941.808 21.709C941.01 21.709 940.408 21.968 940.002 22.486C939.596 23.004 939.393 23.76 939.393 24.754C939.393 25.748 939.596 26.504 940.002 27.022C940.408 27.54 941.01 27.799 941.808 27.799C942.62 27.799 943.229 27.54 943.635 27.022C944.055 26.504 944.265 25.748 944.265 24.754C944.265 23.76 944.055 23.004 943.635 22.486C943.229 21.968 942.62 21.709 941.808 21.709ZM948.037 19.966H958.012V23.914H956.101V22.087H954.358V27.358H956.101V29.5H949.927V27.358H951.691V22.087H949.948V23.914H948.037V19.966ZM959.473 29.521V27.4H961.342V22.087H959.473V19.987H965.92V22.087H963.841V23.641H965.479C966.165 23.641 966.809 23.718 967.411 23.872C968.027 24.026 968.524 24.306 968.902 24.712C969.294 25.118 969.49 25.706 969.49 26.476C969.49 27.4 969.231 28.142 968.713 28.702C968.209 29.248 967.495 29.521 966.571 29.521H959.473ZM963.841 27.379H965.605C966.025 27.379 966.361 27.302 966.613 27.148C966.879 26.98 967.012 26.728 967.012 26.392C967.012 26.07 966.893 25.839 966.655 25.699C966.417 25.559 966.095 25.489 965.689 25.489H963.841V27.379ZM970.96 29.5V27.358V22.087H969.511V19.966H975.391V22.087H973.627V27.358H975.391V29.5H970.96ZM988.997 19.987C990.243 19.987 991.209 20.211 991.895 20.659C992.595 21.093 992.945 21.702 992.945 22.486C992.945 22.948 992.819 23.354 992.567 23.704C992.329 24.04 991.993 24.292 991.559 24.46C992.133 24.53 992.581 24.754 992.903 25.132C993.225 25.51 993.386 25.993 993.386 26.581C993.386 27.505 993.113 28.226 992.567 28.744C992.021 29.262 991.251 29.521 990.257 29.521H982.319V27.4H984.188V22.087H982.319V19.987H988.997ZM989.291 27.547C990.229 27.547 990.698 27.169 990.698 26.413C990.698 25.727 990.257 25.384 989.375 25.384H986.897V27.547H989.291ZM989.165 23.809C989.879 23.809 990.236 23.508 990.236 22.906C990.236 22.248 989.746 21.919 988.766 21.919H986.897V23.809H989.165ZM823.17 42.546C824.262 42.546 825.186 42.756 825.942 43.176C826.698 43.582 827.272 44.177 827.664 44.961C828.056 45.731 828.252 46.662 828.252 47.754C828.252 49.378 827.811 50.645 826.929 51.555C826.047 52.465 824.794 52.92 823.17 52.92C822.106 52.92 821.196 52.717 820.44 52.311C819.698 51.905 819.131 51.317 818.739 50.547C818.361 49.763 818.172 48.832 818.172 47.754C818.172 46.662 818.361 45.731 818.739 44.961C819.131 44.177 819.698 43.582 820.44 43.176C821.196 42.756 822.106 42.546 823.17 42.546ZM823.191 44.709C822.393 44.709 821.791 44.968 821.385 45.486C820.979 46.004 820.776 46.76 820.776 47.754C820.776 48.748 820.979 49.504 821.385 50.022C821.791 50.54 822.393 50.799 823.191 50.799C824.003 50.799 824.612 50.54 825.018 50.022C825.438 49.504 825.648 48.748 825.648 47.754C825.648 46.76 825.438 46.004 825.018 45.486C824.612 44.968 824.003 44.709 823.191 44.709ZM829.761 42.966H835.011V45.087H834.192V46.641H837.909V45.087H837.09V42.966H842.34V45.087H840.576V50.358H842.34V52.5H837.09V50.358H837.909V48.783H834.192V50.358H835.011V52.5H829.761V50.358H831.525V45.087H829.761V42.966ZM850.62 52.5V50.358H851.46V45.087H845.328V42.945H855.849V45.087H854.106V50.358H855.849V52.5H850.62ZM844.11 52.689V50.547C844.852 50.589 845.412 50.491 845.79 50.253C846.168 50.015 846.434 49.616 846.588 49.056C846.742 48.482 846.847 47.74 846.903 46.83L847.05 44.625H849.276L849.087 47.397C849.003 48.615 848.793 49.644 848.457 50.484C848.121 51.31 847.603 51.912 846.903 52.29C846.203 52.668 845.272 52.801 844.11 52.689ZM864.602 52.143C863.594 52.661 862.586 52.92 861.578 52.92C860.22 52.92 859.191 52.668 858.491 52.164C857.791 51.646 857.441 50.897 857.441 49.917C857.441 47.915 858.771 46.914 861.431 46.914H863.636C863.636 46.102 863.461 45.507 863.111 45.129C862.775 44.737 862.355 44.541 861.851 44.541C861.543 44.541 861.256 44.562 860.99 44.604C860.738 44.646 860.486 44.709 860.234 44.793L860.045 45.78L857.84 45.507L858.239 43.155C858.813 42.959 859.401 42.812 860.003 42.714C860.619 42.602 861.27 42.546 861.956 42.546C863.356 42.546 864.427 42.917 865.169 43.659C865.925 44.387 866.303 45.465 866.303 46.893V50.316L868.004 50.862L867.269 53.046L864.602 52.143ZM861.494 48.573C861.06 48.573 860.724 48.692 860.486 48.93C860.262 49.154 860.15 49.469 860.15 49.875C860.15 50.617 860.654 50.988 861.662 50.988C862.362 50.988 863.02 50.806 863.636 50.442V48.573H861.494ZM868.787 42.945H873.932V45.087H873.113V49.392L876.83 42.966L881.156 42.945V45.087H879.392V50.358H881.156V52.5H876.011V50.358H876.83V45.927L873.113 52.5H868.787V50.358H870.551V45.087H868.787V42.945ZM875.171 41.454C874.079 41.454 873.204 41.167 872.546 40.593C871.902 40.005 871.524 39.263 871.412 38.367L873.134 38.157C873.162 38.633 873.337 39.032 873.659 39.354C873.995 39.662 874.499 39.816 875.171 39.816C875.857 39.816 876.368 39.662 876.704 39.354C877.04 39.032 877.222 38.633 877.25 38.157L878.972 38.367C878.874 39.263 878.489 40.005 877.817 40.593C877.159 41.167 876.277 41.454 875.171 41.454ZM883.163 42.966H888.413V45.087H887.594V46.641H891.311V45.087H890.492V42.966H895.742V45.087H893.978V50.358H895.742V52.5H890.492V50.358H891.311V48.783H887.594V50.358H888.413V52.5H883.163V50.358H884.927V45.087H883.163V42.966ZM896.677 46.767H903.712V48.888H896.677V46.767ZM905.681 42.945H914.228L915.068 46.536L912.758 47.061L912.233 45.066H910.112V50.358H912.569V52.5H905.681V50.358H907.445V45.066H905.681V42.945ZM915.742 57.204V55.104H917.506V45.444L915.511 44.772L916.204 42.63L919.228 43.659C919.704 43.309 920.208 43.036 920.74 42.84C921.286 42.644 921.797 42.546 922.273 42.546C923.771 42.546 924.94 43.008 925.78 43.932C926.634 44.842 927.061 46.102 927.061 47.712C927.061 48.776 926.851 49.707 926.431 50.505C926.025 51.289 925.437 51.898 924.667 52.332C923.911 52.752 923.015 52.962 921.979 52.962C921.293 52.962 920.691 52.892 920.173 52.752V55.104H921.937V57.204H915.742ZM921.937 50.841C922.707 50.841 923.295 50.575 923.701 50.043C924.121 49.497 924.331 48.734 924.331 47.754C924.331 46.788 924.135 46.039 923.743 45.507C923.365 44.975 922.826 44.709 922.126 44.709C921.748 44.709 921.384 44.779 921.034 44.919C920.698 45.045 920.397 45.227 920.131 45.465V50.526C920.369 50.624 920.649 50.701 920.971 50.757C921.293 50.813 921.615 50.841 921.937 50.841ZM930.176 57.729C929.868 57.729 929.546 57.687 929.21 57.603C928.874 57.533 928.524 57.421 928.16 57.267L928.664 55.188C928.944 55.3 929.189 55.384 929.399 55.44C929.623 55.496 929.868 55.524 930.134 55.524C930.456 55.524 930.729 55.433 930.953 55.251C931.177 55.083 931.401 54.789 931.625 54.369C931.849 53.949 932.108 53.382 932.402 52.668L935.573 45.087H934.523L934.649 42.966H939.857V45.087H938.198L934.187 53.991C933.585 55.335 932.969 56.294 932.339 56.868C931.723 57.442 931.002 57.729 930.176 57.729ZM932.843 53.865L928.727 45.087H927.173V42.966H932.57V45.087H931.436L934.103 51.513L932.843 53.865ZM940.79 42.945H953.369V45.087H951.605V50.358H953.369V52.5H948.119V50.358H948.938V45.087H945.221V50.358H946.04V52.5H940.79V50.358H942.554V45.087H940.79V42.945ZM955.392 42.945H967.971V45.087H966.207V50.358H967.971V52.5H962.721V50.358H963.54V45.087H959.823V50.358H960.642V52.5H955.392V50.358H957.156V45.087H955.392V42.945ZM978.739 51.324C978.095 51.87 977.423 52.269 976.723 52.521C976.037 52.787 975.358 52.92 974.686 52.92C973.594 52.92 972.642 52.703 971.83 52.269C971.018 51.821 970.388 51.212 969.94 50.442C969.506 49.658 969.289 48.769 969.289 47.775C969.289 46.725 969.499 45.808 969.919 45.024C970.339 44.24 970.92 43.631 971.662 43.197C972.404 42.763 973.265 42.546 974.245 42.546C975.267 42.546 976.149 42.749 976.891 43.155C977.647 43.561 978.228 44.128 978.634 44.856C979.054 45.57 979.264 46.417 979.264 47.397C979.264 47.579 979.25 47.789 979.222 48.027C979.208 48.265 979.18 48.489 979.138 48.699H971.83C971.886 49.175 972.047 49.574 972.313 49.896C972.579 50.218 972.915 50.456 973.321 50.61C973.741 50.764 974.196 50.841 974.686 50.841C975.274 50.841 975.841 50.743 976.387 50.547C976.933 50.351 977.43 50.078 977.878 49.728L978.739 51.324ZM976.618 46.935C976.618 46.277 976.415 45.745 976.009 45.339C975.603 44.919 975.043 44.709 974.329 44.709C973.685 44.709 973.125 44.919 972.649 45.339C972.173 45.745 971.921 46.277 971.893 46.935H976.618Z" fill="#3B4F60"/>
<path d="M1230.07 45.28V41.696H1233.14V40.256H1232.73C1231.45 40.256 1230.27 40.1387 1229.21 39.904C1228.16 39.6693 1227.25 39.2853 1226.49 38.752C1225.74 38.2187 1225.16 37.5147 1224.76 36.64C1224.35 35.744 1224.15 34.656 1224.15 33.376C1224.15 32.096 1224.35 31.04 1224.76 30.208C1225.16 29.3547 1225.73 28.6827 1226.45 28.192C1227.2 27.7013 1228.1 27.36 1229.14 27.168C1230.19 26.9547 1231.35 26.848 1232.63 26.848H1233.14V25.76L1230.42 24.864L1231.64 21.504L1237.24 23.36V26.88L1237.78 26.912C1239.06 26.9547 1240.21 27.0827 1241.24 27.296C1242.28 27.5093 1243.17 27.8507 1243.89 28.32C1244.64 28.7893 1245.22 29.44 1245.62 30.272C1246.03 31.0827 1246.23 32.128 1246.23 33.408C1246.23 34.688 1246.03 35.7653 1245.62 36.64C1245.22 37.5147 1244.64 38.2187 1243.89 38.752C1243.15 39.2853 1242.25 39.68 1241.2 39.936C1240.18 40.1707 1239.04 40.288 1237.78 40.288H1237.24V41.696H1240.31V45.28H1230.07ZM1232.44 37.376H1233.14V29.408H1232.47C1231.87 29.408 1231.35 29.4827 1230.9 29.632C1230.47 29.7813 1230.12 30.016 1229.85 30.336C1229.57 30.656 1229.35 31.072 1229.21 31.584C1229.08 32.0747 1229.01 32.672 1229.01 33.376C1229.01 34.2933 1229.13 35.0507 1229.37 35.648C1229.62 36.2453 1230.01 36.6827 1230.52 36.96C1231.03 37.2373 1231.67 37.376 1232.44 37.376ZM1237.24 37.376H1237.75C1238.5 37.376 1239.14 37.2373 1239.67 36.96C1240.22 36.6613 1240.64 36.224 1240.92 35.648C1241.22 35.0507 1241.37 34.304 1241.37 33.408C1241.37 32.704 1241.29 32.1067 1241.14 31.616C1240.99 31.104 1240.77 30.688 1240.47 30.368C1240.19 30.048 1239.83 29.8133 1239.38 29.664C1238.93 29.5147 1238.4 29.44 1237.78 29.44H1237.24V37.376ZM1248.79 29.44H1256.63V32.704H1255.38V39.264L1261.04 29.472L1267.63 29.44V32.704H1264.95V40.736H1267.63V44H1259.79V40.736H1261.04V33.984L1255.38 44H1248.79V40.736H1251.47V32.704H1248.79V29.44ZM1270.69 29.472H1278.69V32.704H1277.44V35.072H1283.11V32.704H1281.86V29.472H1289.86V32.704H1287.17V40.736H1289.86V44H1281.86V40.736H1283.11V38.336H1277.44V40.736H1278.69V44H1270.69V40.736H1273.38V32.704H1270.69V29.472ZM1292.94 29.44H1300.78V32.704H1299.53V39.264L1305.2 29.472L1311.79 29.44V32.704H1309.1V40.736H1311.79V44H1303.95V40.736H1305.2V33.984L1299.53 44H1292.94V40.736H1295.63V32.704H1292.94V29.44ZM1314.85 29.472H1322.85V32.704H1321.57V40.736H1325.06V32.704V29.472H1330.37V32.704H1329.12V40.736H1332.58V32.704V29.472H1339.33V32.704H1336.64V40.736H1339.33V44H1314.85V40.736H1317.5V32.704H1314.85V29.472Z" fill="#3B4F60"/>
<circle cx="50" cy="82" r="14" fill="#3B4F60"/>
<circle cx="296" cy="82" r="14" fill="#3B4F60"/>
<circle cx="542" cy="82" r="14" fill="#3B4F60"/>
<circle cx="788" cy="82" r="14" fill="#3B4F60"/>
<circle cx="1034" cy="82" r="14" fill="#3B4F60"/>
<circle cx="1280" cy="82" r="14" fill="#3B4F60"/>
</svg>
